%TF.GenerationSoftware,KiCad,Pcbnew,(6.0.1-0)*%
%TF.CreationDate,2022-02-26T01:43:08+01:00*%
%TF.ProjectId,YMFC-32,594d4643-2d33-4322-9e6b-696361645f70,rev?*%
%TF.SameCoordinates,Original*%
%TF.FileFunction,Soldermask,Bot*%
%TF.FilePolarity,Negative*%
%FSLAX46Y46*%
G04 Gerber Fmt 4.6, Leading zero omitted, Abs format (unit mm)*
G04 Created by KiCad (PCBNEW (6.0.1-0)) date 2022-02-26 01:43:08*
%MOMM*%
%LPD*%
G01*
G04 APERTURE LIST*
%ADD10C,1.700000*%
%ADD11R,1.700000X1.700000*%
%ADD12O,1.700000X1.700000*%
%ADD13C,1.600000*%
%ADD14O,1.600000X1.600000*%
%ADD15R,1.800000X1.800000*%
%ADD16C,1.800000*%
%ADD17C,3.000000*%
G04 APERTURE END LIST*
D10*
%TO.C,U1*%
X152570000Y-70970000D03*
D11*
X137330000Y-70970000D03*
D10*
X152570000Y-73510000D03*
X137330000Y-73510000D03*
X152570000Y-76050000D03*
X137330000Y-76050000D03*
X152570000Y-78590000D03*
X137330000Y-78590000D03*
X152570000Y-81130000D03*
X137330000Y-81130000D03*
X152570000Y-83670000D03*
X137330000Y-83670000D03*
X152570000Y-86210000D03*
X137330000Y-86210000D03*
X152570000Y-88750000D03*
X137330000Y-88750000D03*
X152570000Y-91290000D03*
X137330000Y-91290000D03*
X152570000Y-93830000D03*
X137330000Y-93830000D03*
X152570000Y-96370000D03*
X137330000Y-96370000D03*
X152570000Y-98910000D03*
X137330000Y-98910000D03*
X152570000Y-101450000D03*
X137330000Y-101450000D03*
X152570000Y-103990000D03*
X137330000Y-103990000D03*
X152570000Y-106530000D03*
X137330000Y-106530000D03*
X152570000Y-109070000D03*
X137330000Y-109070000D03*
X152570000Y-111610000D03*
X137330000Y-111610000D03*
X152570000Y-114150000D03*
X137330000Y-114150000D03*
X152570000Y-116690000D03*
X137330000Y-116690000D03*
X152570000Y-119230000D03*
X137330000Y-119230000D03*
%TD*%
D11*
%TO.C,J5*%
X115725000Y-60600000D03*
D12*
X113185000Y-60600000D03*
X110645000Y-60600000D03*
%TD*%
D13*
%TO.C,R4*%
X171800000Y-96900000D03*
D14*
X159100000Y-96900000D03*
%TD*%
D11*
%TO.C,J4*%
X116325000Y-130100000D03*
D12*
X113785000Y-130100000D03*
X111245000Y-130100000D03*
%TD*%
D11*
%TO.C,J11*%
X125440000Y-102800000D03*
D12*
X122900000Y-102800000D03*
X120360000Y-102800000D03*
X117820000Y-102800000D03*
X115280000Y-102800000D03*
X112740000Y-102800000D03*
X110200000Y-102800000D03*
%TD*%
D15*
%TO.C,D2*%
X129900000Y-130000000D03*
D16*
X127360000Y-130000000D03*
%TD*%
D15*
%TO.C,D1*%
X137375000Y-130100000D03*
D16*
X134835000Y-130100000D03*
%TD*%
D11*
%TO.C,J2*%
X179525000Y-60800000D03*
D12*
X176985000Y-60800000D03*
X174445000Y-60800000D03*
%TD*%
D13*
%TO.C,R2*%
X123900000Y-123300000D03*
D14*
X111200000Y-123300000D03*
%TD*%
D11*
%TO.C,J3*%
X178425000Y-129600000D03*
D12*
X175885000Y-129600000D03*
X173345000Y-129600000D03*
%TD*%
D11*
%TO.C,J12*%
X166825000Y-72500000D03*
D12*
X169365000Y-72500000D03*
X171905000Y-72500000D03*
X174445000Y-72500000D03*
X176985000Y-72500000D03*
%TD*%
D11*
%TO.C,J1*%
X135425000Y-61600000D03*
D12*
X132885000Y-61600000D03*
X130345000Y-61600000D03*
%TD*%
D11*
%TO.C,J9*%
X163100000Y-111200000D03*
D12*
X163100000Y-113740000D03*
X163100000Y-116280000D03*
X163100000Y-118820000D03*
%TD*%
D17*
%TO.C,H1*%
X144900000Y-129000000D03*
%TD*%
D11*
%TO.C,J7*%
X153200000Y-61900000D03*
D12*
X155740000Y-61900000D03*
X158280000Y-61900000D03*
X160820000Y-61900000D03*
%TD*%
D13*
%TO.C,R3*%
X159150000Y-101400000D03*
D14*
X171850000Y-101400000D03*
%TD*%
D11*
%TO.C,J10*%
X127700000Y-72700000D03*
D12*
X125160000Y-72700000D03*
X122620000Y-72700000D03*
X120080000Y-72700000D03*
X117540000Y-72700000D03*
X115000000Y-72700000D03*
X112460000Y-72700000D03*
X109920000Y-72700000D03*
%TD*%
D17*
%TO.C,H2*%
X177700000Y-96200000D03*
%TD*%
D11*
%TO.C,J8*%
X154200000Y-129000000D03*
D12*
X156740000Y-129000000D03*
X159280000Y-129000000D03*
X161820000Y-129000000D03*
%TD*%
D13*
%TO.C,R1*%
X124000000Y-118900000D03*
D14*
X111300000Y-118900000D03*
%TD*%
D17*
%TO.C,H3*%
X144900000Y-63500000D03*
%TD*%
%TO.C,H4*%
X112100000Y-96300000D03*
%TD*%
M02*
