%TF.GenerationSoftware,KiCad,Pcbnew,(6.0.1-0)*%
%TF.CreationDate,2022-02-26T01:43:07+01:00*%
%TF.ProjectId,YMFC-32,594d4643-2d33-4322-9e6b-696361645f70,rev?*%
%TF.SameCoordinates,Original*%
%TF.FileFunction,Copper,L2,Bot*%
%TF.FilePolarity,Positive*%
%FSLAX46Y46*%
G04 Gerber Fmt 4.6, Leading zero omitted, Abs format (unit mm)*
G04 Created by KiCad (PCBNEW (6.0.1-0)) date 2022-02-26 01:43:07*
%MOMM*%
%LPD*%
G01*
G04 APERTURE LIST*
%TA.AperFunction,ComponentPad*%
%ADD10C,1.700000*%
%TD*%
%TA.AperFunction,ComponentPad*%
%ADD11R,1.700000X1.700000*%
%TD*%
%TA.AperFunction,ComponentPad*%
%ADD12O,1.700000X1.700000*%
%TD*%
%TA.AperFunction,ComponentPad*%
%ADD13C,1.600000*%
%TD*%
%TA.AperFunction,ComponentPad*%
%ADD14O,1.600000X1.600000*%
%TD*%
%TA.AperFunction,ComponentPad*%
%ADD15R,1.800000X1.800000*%
%TD*%
%TA.AperFunction,ComponentPad*%
%ADD16C,1.800000*%
%TD*%
%TA.AperFunction,ViaPad*%
%ADD17C,0.800000*%
%TD*%
%TA.AperFunction,Conductor*%
%ADD18C,0.250000*%
%TD*%
G04 APERTURE END LIST*
D10*
%TO.P,U1,40,GND*%
%TO.N,GND2*%
X152570000Y-70970000D03*
D11*
%TO.P,U1,1,PB12*%
%TO.N,unconnected-(U1-Pad1)*%
X137330000Y-70970000D03*
D10*
%TO.P,U1,39,GND*%
%TO.N,GND1*%
X152570000Y-73510000D03*
%TO.P,U1,2,PB13*%
%TO.N,unconnected-(U1-Pad2)*%
X137330000Y-73510000D03*
%TO.P,U1,38,3V3*%
%TO.N,+3V3*%
X152570000Y-76050000D03*
%TO.P,U1,3,PB14*%
%TO.N,unconnected-(U1-Pad3)*%
X137330000Y-76050000D03*
%TO.P,U1,37,RST*%
%TO.N,unconnected-(U1-Pad37)*%
X152570000Y-78590000D03*
%TO.P,U1,4,PB15*%
%TO.N,unconnected-(U1-Pad4)*%
X137330000Y-78590000D03*
%TO.P,U1,36,PB11*%
%TO.N,SDA*%
X152570000Y-81130000D03*
%TO.P,U1,5,PA8*%
%TO.N,unconnected-(U1-Pad5)*%
X137330000Y-81130000D03*
%TO.P,U1,35,PB10*%
%TO.N,SCL*%
X152570000Y-83670000D03*
%TO.P,U1,6,PA9*%
%TO.N,UART_RX*%
X137330000Y-83670000D03*
%TO.P,U1,34,PB1*%
%TO.N,unconnected-(U1-Pad34)*%
X152570000Y-86210000D03*
%TO.P,U1,7,PA10*%
%TO.N,UART_TX*%
X137330000Y-86210000D03*
%TO.P,U1,33,PB0*%
%TO.N,TLM_TX*%
X152570000Y-88750000D03*
%TO.P,U1,8,PA11*%
%TO.N,unconnected-(U1-Pad8)*%
X137330000Y-88750000D03*
%TO.P,U1,32,PA7*%
%TO.N,unconnected-(U1-Pad32)*%
X152570000Y-91290000D03*
%TO.P,U1,9,PA12*%
%TO.N,unconnected-(U1-Pad9)*%
X137330000Y-91290000D03*
%TO.P,U1,31,PA6*%
%TO.N,unconnected-(U1-Pad31)*%
X152570000Y-93830000D03*
%TO.P,U1,10,PA15*%
%TO.N,unconnected-(U1-Pad10)*%
X137330000Y-93830000D03*
%TO.P,U1,30,PA5*%
%TO.N,unconnected-(U1-Pad30)*%
X152570000Y-96370000D03*
%TO.P,U1,11,PB3*%
%TO.N,LED_GREEN*%
X137330000Y-96370000D03*
%TO.P,U1,29,PA4*%
%TO.N,V_BAT*%
X152570000Y-98910000D03*
%TO.P,U1,12,PB4*%
%TO.N,LED_RED*%
X137330000Y-98910000D03*
%TO.P,U1,28,PA3*%
%TO.N,GPS_TX*%
X152570000Y-101450000D03*
%TO.P,U1,13,PB5*%
%TO.N,unconnected-(U1-Pad13)*%
X137330000Y-101450000D03*
%TO.P,U1,27,PA2*%
%TO.N,GPS_RX*%
X152570000Y-103990000D03*
%TO.P,U1,14,PB6*%
%TO.N,ESC_1*%
X137330000Y-103990000D03*
%TO.P,U1,26,PA1*%
%TO.N,unconnected-(U1-Pad26)*%
X152570000Y-106530000D03*
%TO.P,U1,15,PB7*%
%TO.N,ESC_2*%
X137330000Y-106530000D03*
%TO.P,U1,25,PA0*%
%TO.N,PPM*%
X152570000Y-109070000D03*
%TO.P,U1,16,PB8*%
%TO.N,ESC_3*%
X137330000Y-109070000D03*
%TO.P,U1,24,PC15*%
%TO.N,unconnected-(U1-Pad24)*%
X152570000Y-111610000D03*
%TO.P,U1,17,PB9*%
%TO.N,ESC_4*%
X137330000Y-111610000D03*
%TO.P,U1,23,PC14*%
%TO.N,unconnected-(U1-Pad23)*%
X152570000Y-114150000D03*
%TO.P,U1,18,5V*%
%TO.N,+5V*%
X137330000Y-114150000D03*
%TO.P,U1,22,PC13*%
%TO.N,unconnected-(U1-Pad22)*%
X152570000Y-116690000D03*
%TO.P,U1,19,GND*%
%TO.N,GND*%
X137330000Y-116690000D03*
%TO.P,U1,21,VBat*%
%TO.N,unconnected-(U1-Pad21)*%
X152570000Y-119230000D03*
%TO.P,U1,20,3V3*%
%TO.N,unconnected-(U1-Pad20)*%
X137330000Y-119230000D03*
%TD*%
D11*
%TO.P,J5,1,Pin_1*%
%TO.N,ESC_4*%
X115725000Y-60600000D03*
D12*
%TO.P,J5,2,Pin_2*%
%TO.N,unconnected-(J5-Pad2)*%
X113185000Y-60600000D03*
%TO.P,J5,3,Pin_3*%
%TO.N,GND*%
X110645000Y-60600000D03*
%TD*%
D13*
%TO.P,R4,1*%
%TO.N,GND1*%
X171800000Y-96900000D03*
D14*
%TO.P,R4,2*%
%TO.N,V_BAT*%
X159100000Y-96900000D03*
%TD*%
D11*
%TO.P,J4,1,Pin_1*%
%TO.N,ESC_3*%
X116325000Y-130100000D03*
D12*
%TO.P,J4,2,Pin_2*%
%TO.N,unconnected-(J4-Pad2)*%
X113785000Y-130100000D03*
%TO.P,J4,3,Pin_3*%
%TO.N,GND*%
X111245000Y-130100000D03*
%TD*%
D11*
%TO.P,J11,1,Pin_1*%
%TO.N,+3V3*%
X125440000Y-102800000D03*
D12*
%TO.P,J11,2,Pin_2*%
%TO.N,GND1*%
X122900000Y-102800000D03*
%TO.P,J11,3,Pin_3*%
%TO.N,SCL*%
X120360000Y-102800000D03*
%TO.P,J11,4,Pin_4*%
%TO.N,SDA*%
X117820000Y-102800000D03*
%TO.P,J11,5,Pin_5*%
%TO.N,unconnected-(J11-Pad5)*%
X115280000Y-102800000D03*
%TO.P,J11,6,Pin_6*%
%TO.N,unconnected-(J11-Pad6)*%
X112740000Y-102800000D03*
%TO.P,J11,7,Pin_7*%
%TO.N,unconnected-(J11-Pad7)*%
X110200000Y-102800000D03*
%TD*%
D15*
%TO.P,D2,1,K*%
%TO.N,GND*%
X129900000Y-130000000D03*
D16*
%TO.P,D2,2,A*%
%TO.N,Net-(D2-Pad2)*%
X127360000Y-130000000D03*
%TD*%
D15*
%TO.P,D1,1,K*%
%TO.N,GND*%
X137375000Y-130100000D03*
D16*
%TO.P,D1,2,A*%
%TO.N,Net-(D1-Pad2)*%
X134835000Y-130100000D03*
%TD*%
D11*
%TO.P,J2,1,Pin_1*%
%TO.N,ESC_1*%
X179525000Y-60800000D03*
D12*
%TO.P,J2,2,Pin_2*%
%TO.N,+5V*%
X176985000Y-60800000D03*
%TO.P,J2,3,Pin_3*%
%TO.N,GND*%
X174445000Y-60800000D03*
%TD*%
D13*
%TO.P,R2,1*%
%TO.N,Net-(D2-Pad2)*%
X123900000Y-123300000D03*
D14*
%TO.P,R2,2*%
%TO.N,LED_RED*%
X111200000Y-123300000D03*
%TD*%
D11*
%TO.P,J3,1,Pin_1*%
%TO.N,ESC_2*%
X178425000Y-129600000D03*
D12*
%TO.P,J3,2,Pin_2*%
%TO.N,unconnected-(J3-Pad2)*%
X175885000Y-129600000D03*
%TO.P,J3,3,Pin_3*%
%TO.N,GND*%
X173345000Y-129600000D03*
%TD*%
D11*
%TO.P,J12,1,Pin_1*%
%TO.N,+5V*%
X166825000Y-72500000D03*
D12*
%TO.P,J12,2,Pin_2*%
%TO.N,GND1*%
X169365000Y-72500000D03*
%TO.P,J12,3,Pin_3*%
%TO.N,SCL*%
X171905000Y-72500000D03*
%TO.P,J12,4,Pin_4*%
%TO.N,SDA*%
X174445000Y-72500000D03*
%TO.P,J12,5,Pin_5*%
%TO.N,unconnected-(J12-Pad5)*%
X176985000Y-72500000D03*
%TD*%
D11*
%TO.P,J1,1,Pin_1*%
%TO.N,PPM*%
X135425000Y-61600000D03*
D12*
%TO.P,J1,2,Pin_2*%
%TO.N,+5V*%
X132885000Y-61600000D03*
%TO.P,J1,3,Pin_3*%
%TO.N,GND*%
X130345000Y-61600000D03*
%TD*%
D11*
%TO.P,J9,1,Pin_1*%
%TO.N,GPS_TX*%
X163100000Y-111200000D03*
D12*
%TO.P,J9,2,Pin_2*%
%TO.N,GPS_RX*%
X163100000Y-113740000D03*
%TO.P,J9,3,Pin_3*%
%TO.N,+5V*%
X163100000Y-116280000D03*
%TO.P,J9,4,Pin_4*%
%TO.N,GND2*%
X163100000Y-118820000D03*
%TD*%
D11*
%TO.P,J7,1,Pin_1*%
%TO.N,TLM_TX*%
X153200000Y-61900000D03*
D12*
%TO.P,J7,2,Pin_2*%
%TO.N,unconnected-(J7-Pad2)*%
X155740000Y-61900000D03*
%TO.P,J7,3,Pin_3*%
%TO.N,+5V*%
X158280000Y-61900000D03*
%TO.P,J7,4,Pin_4*%
%TO.N,GND1*%
X160820000Y-61900000D03*
%TD*%
D13*
%TO.P,R3,1*%
%TO.N,V_BAT*%
X159150000Y-101400000D03*
D14*
%TO.P,R3,2*%
%TO.N,Net-(J6-Pad1)*%
X171850000Y-101400000D03*
%TD*%
D11*
%TO.P,J10,1,Pin_1*%
%TO.N,+5V*%
X127700000Y-72700000D03*
D12*
%TO.P,J10,2,Pin_2*%
%TO.N,GND1*%
X125160000Y-72700000D03*
%TO.P,J10,3,Pin_3*%
%TO.N,SCL*%
X122620000Y-72700000D03*
%TO.P,J10,4,Pin_4*%
%TO.N,SDA*%
X120080000Y-72700000D03*
%TO.P,J10,5,Pin_5*%
%TO.N,unconnected-(J10-Pad5)*%
X117540000Y-72700000D03*
%TO.P,J10,6,Pin_6*%
%TO.N,unconnected-(J10-Pad6)*%
X115000000Y-72700000D03*
%TO.P,J10,7,Pin_7*%
%TO.N,unconnected-(J10-Pad7)*%
X112460000Y-72700000D03*
%TO.P,J10,8,Pin_8*%
%TO.N,unconnected-(J10-Pad8)*%
X109920000Y-72700000D03*
%TD*%
D11*
%TO.P,J8,1,Pin_1*%
%TO.N,UART_TX*%
X154200000Y-129000000D03*
D12*
%TO.P,J8,2,Pin_2*%
%TO.N,UART_RX*%
X156740000Y-129000000D03*
%TO.P,J8,3,Pin_3*%
%TO.N,+5V*%
X159280000Y-129000000D03*
%TO.P,J8,4,Pin_4*%
%TO.N,GND2*%
X161820000Y-129000000D03*
%TD*%
D13*
%TO.P,R1,1*%
%TO.N,Net-(D1-Pad2)*%
X124000000Y-118900000D03*
D14*
%TO.P,R1,2*%
%TO.N,LED_GREEN*%
X111300000Y-118900000D03*
%TD*%
D17*
%TO.N,SDA*%
X147400000Y-82100000D03*
%TO.N,GND2*%
X158200000Y-71500000D03*
%TO.N,ESC_1*%
X131800000Y-97600000D03*
X122700000Y-57200000D03*
X131800000Y-70900000D03*
%TO.N,+3V3*%
X126500000Y-79300000D03*
X106100000Y-72900000D03*
X149900000Y-58600000D03*
%TO.N,GND1*%
X125400000Y-67800000D03*
X144900000Y-74300000D03*
X147900000Y-74400000D03*
X129700000Y-67900000D03*
%TO.N,TLM_TX*%
X160900000Y-72500000D03*
%TO.N,+5V*%
X131400000Y-100900000D03*
%TO.N,PPM*%
X141600000Y-68100000D03*
%TO.N,GND*%
X117500000Y-114000000D03*
X128200000Y-116200000D03*
%TO.N,ESC_4*%
X130500000Y-113800000D03*
X118500000Y-112100000D03*
%TO.N,+5V*%
X154700000Y-123600000D03*
X140900000Y-123700000D03*
%TD*%
D18*
%TO.N,SCL*%
X122620000Y-72700000D02*
X124220000Y-74300000D01*
X124220000Y-74300000D02*
X130000000Y-74300000D01*
X130000000Y-74300000D02*
X132700000Y-71600000D01*
X132700000Y-71600000D02*
X132700000Y-66100000D01*
X132700000Y-66100000D02*
X138500000Y-66100000D01*
X138500000Y-66100000D02*
X143800000Y-71400000D01*
X143800000Y-71400000D02*
X143800000Y-76700000D01*
X143800000Y-76700000D02*
X150770000Y-83670000D01*
X150770000Y-83670000D02*
X152570000Y-83670000D01*
%TO.N,SDA*%
X120080000Y-72700000D02*
X122280000Y-74900000D01*
X122280000Y-74900000D02*
X130400000Y-74900000D01*
X130400000Y-74900000D02*
X133800000Y-71500000D01*
X133800000Y-71500000D02*
X133800000Y-67100000D01*
X133800000Y-67100000D02*
X137900000Y-67100000D01*
X137900000Y-67100000D02*
X139700000Y-68900000D01*
X139700000Y-68900000D02*
X139700000Y-74400000D01*
X139700000Y-74400000D02*
X147400000Y-82100000D01*
%TO.N,+3V3*%
X149900000Y-58600000D02*
X149900000Y-73380000D01*
X149900000Y-73380000D02*
X152570000Y-76050000D01*
%TO.N,ESC_1*%
X122700000Y-57200000D02*
X122700000Y-58800000D01*
X122700000Y-58800000D02*
X131800000Y-67900000D01*
X131800000Y-67900000D02*
X131800000Y-70900000D01*
%TO.N,TLM_TX*%
X160900000Y-72500000D02*
X160900000Y-69600000D01*
X160900000Y-69600000D02*
X153200000Y-61900000D01*
%TO.N,GND2*%
X158200000Y-71500000D02*
X157670000Y-70970000D01*
X157670000Y-70970000D02*
X152570000Y-70970000D01*
%TO.N,ESC_1*%
X131800000Y-98460000D02*
X137330000Y-103990000D01*
X131800000Y-97600000D02*
X131800000Y-98460000D01*
%TO.N,+3V3*%
X126500000Y-79300000D02*
X112500000Y-79300000D01*
X112500000Y-79300000D02*
X106100000Y-72900000D01*
%TO.N,GND1*%
X145000000Y-74400000D02*
X144900000Y-74300000D01*
X125500000Y-67900000D02*
X125400000Y-67800000D01*
X147900000Y-74400000D02*
X145000000Y-74400000D01*
X129700000Y-67900000D02*
X125500000Y-67900000D01*
%TO.N,+5V*%
X158280000Y-61900000D02*
X158280000Y-63955000D01*
X158280000Y-63955000D02*
X166825000Y-72500000D01*
X166825000Y-72500000D02*
X166825000Y-70960000D01*
X166825000Y-70960000D02*
X176985000Y-60800000D01*
%TO.N,SCL*%
X171905000Y-72500000D02*
X171905000Y-70495000D01*
X171905000Y-70495000D02*
X172600000Y-69800000D01*
X172600000Y-69800000D02*
X180000000Y-69800000D01*
X180000000Y-69800000D02*
X180500000Y-70300000D01*
X180500000Y-78600000D02*
X175430000Y-83670000D01*
X175430000Y-83670000D02*
X152570000Y-83670000D01*
X180500000Y-70300000D02*
X180500000Y-78600000D01*
%TO.N,SDA*%
X174445000Y-72500000D02*
X165815000Y-81130000D01*
X165815000Y-81130000D02*
X152570000Y-81130000D01*
%TO.N,+5V*%
X131400000Y-108220000D02*
X131400000Y-100900000D01*
X137330000Y-114150000D02*
X131400000Y-108220000D01*
%TO.N,PPM*%
X141600000Y-68100000D02*
X141600000Y-67775000D01*
X141600000Y-67775000D02*
X135425000Y-61600000D01*
%TO.N,GND*%
X119700000Y-116200000D02*
X117500000Y-114000000D01*
X128200000Y-116200000D02*
X119700000Y-116200000D01*
%TO.N,ESC_4*%
X118500000Y-112100000D02*
X128800000Y-112100000D01*
X128800000Y-112100000D02*
X130500000Y-113800000D01*
%TO.N,+5V*%
X154600000Y-123700000D02*
X154700000Y-123600000D01*
X140900000Y-123700000D02*
X154600000Y-123700000D01*
%TD*%
M02*
