%TF.GenerationSoftware,KiCad,Pcbnew,(6.0.1-0)*%
%TF.CreationDate,2022-02-26T01:43:08+01:00*%
%TF.ProjectId,YMFC-32,594d4643-2d33-4322-9e6b-696361645f70,rev?*%
%TF.SameCoordinates,Original*%
%TF.FileFunction,Legend,Top*%
%TF.FilePolarity,Positive*%
%FSLAX46Y46*%
G04 Gerber Fmt 4.6, Leading zero omitted, Abs format (unit mm)*
G04 Created by KiCad (PCBNEW (6.0.1-0)) date 2022-02-26 01:43:08*
%MOMM*%
%LPD*%
G01*
G04 APERTURE LIST*
%ADD10C,0.300000*%
%ADD11C,0.200000*%
%ADD12C,0.150000*%
%ADD13C,0.120000*%
%ADD14C,0.100000*%
G04 APERTURE END LIST*
D10*
X167428571Y-120764285D02*
X167428571Y-121478571D01*
X166928571Y-119978571D02*
X167428571Y-120764285D01*
X167928571Y-119978571D01*
X168428571Y-121478571D02*
X168428571Y-119978571D01*
X168928571Y-121050000D01*
X169428571Y-119978571D01*
X169428571Y-121478571D01*
X170642857Y-120692857D02*
X170142857Y-120692857D01*
X170142857Y-121478571D02*
X170142857Y-119978571D01*
X170857142Y-119978571D01*
X172285714Y-121335714D02*
X172214285Y-121407142D01*
X172000000Y-121478571D01*
X171857142Y-121478571D01*
X171642857Y-121407142D01*
X171500000Y-121264285D01*
X171428571Y-121121428D01*
X171357142Y-120835714D01*
X171357142Y-120621428D01*
X171428571Y-120335714D01*
X171500000Y-120192857D01*
X171642857Y-120050000D01*
X171857142Y-119978571D01*
X172000000Y-119978571D01*
X172214285Y-120050000D01*
X172285714Y-120121428D01*
X172928571Y-120907142D02*
X174071428Y-120907142D01*
X174642857Y-119978571D02*
X175571428Y-119978571D01*
X175071428Y-120550000D01*
X175285714Y-120550000D01*
X175428571Y-120621428D01*
X175500000Y-120692857D01*
X175571428Y-120835714D01*
X175571428Y-121192857D01*
X175500000Y-121335714D01*
X175428571Y-121407142D01*
X175285714Y-121478571D01*
X174857142Y-121478571D01*
X174714285Y-121407142D01*
X174642857Y-121335714D01*
X176142857Y-120121428D02*
X176214285Y-120050000D01*
X176357142Y-119978571D01*
X176714285Y-119978571D01*
X176857142Y-120050000D01*
X176928571Y-120121428D01*
X177000000Y-120264285D01*
X177000000Y-120407142D01*
X176928571Y-120621428D01*
X176071428Y-121478571D01*
X177000000Y-121478571D01*
X178785714Y-121478571D02*
X178785714Y-120478571D01*
X178785714Y-120764285D02*
X178857142Y-120621428D01*
X178928571Y-120550000D01*
X179071428Y-120478571D01*
X179214285Y-120478571D01*
X180285714Y-121407142D02*
X180142857Y-121478571D01*
X179857142Y-121478571D01*
X179714285Y-121407142D01*
X179642857Y-121264285D01*
X179642857Y-120692857D01*
X179714285Y-120550000D01*
X179857142Y-120478571D01*
X180142857Y-120478571D01*
X180285714Y-120550000D01*
X180357142Y-120692857D01*
X180357142Y-120835714D01*
X179642857Y-120978571D01*
X180857142Y-120478571D02*
X181214285Y-121478571D01*
X181571428Y-120478571D01*
X182428571Y-119978571D02*
X182571428Y-119978571D01*
X182714285Y-120050000D01*
X182785714Y-120121428D01*
X182857142Y-120264285D01*
X182928571Y-120550000D01*
X182928571Y-120907142D01*
X182857142Y-121192857D01*
X182785714Y-121335714D01*
X182714285Y-121407142D01*
X182571428Y-121478571D01*
X182428571Y-121478571D01*
X182285714Y-121407142D01*
X182214285Y-121335714D01*
X182142857Y-121192857D01*
X182071428Y-120907142D01*
X182071428Y-120550000D01*
X182142857Y-120264285D01*
X182214285Y-120121428D01*
X182285714Y-120050000D01*
X182428571Y-119978571D01*
D11*
X164400000Y-70500000D02*
X179400000Y-70500000D01*
X179400000Y-70500000D02*
X179400000Y-90500000D01*
X179400000Y-90500000D02*
X164400000Y-90500000D01*
X164400000Y-90500000D02*
X164400000Y-70500000D01*
X108340000Y-101100000D02*
X127340000Y-101100000D01*
X127340000Y-101100000D02*
X127340000Y-116100000D01*
X127340000Y-116100000D02*
X108340000Y-116100000D01*
X108340000Y-116100000D02*
X108340000Y-101100000D01*
X125400000Y-96900000D02*
X122100000Y-94900000D01*
X122100000Y-94900000D02*
X119100000Y-96900000D01*
X119100000Y-96900000D02*
X122200000Y-90100000D01*
X122200000Y-90100000D02*
X125400000Y-96900000D01*
G36*
X125400000Y-96900000D02*
G01*
X122100000Y-94900000D01*
X119100000Y-96900000D01*
X122200000Y-90100000D01*
X125400000Y-96900000D01*
G37*
X125400000Y-96900000D02*
X122100000Y-94900000D01*
X119100000Y-96900000D01*
X122200000Y-90100000D01*
X125400000Y-96900000D01*
X108300000Y-71000000D02*
X129300000Y-71000000D01*
X129300000Y-71000000D02*
X129300000Y-87000000D01*
X129300000Y-87000000D02*
X108300000Y-87000000D01*
X108300000Y-87000000D02*
X108300000Y-71000000D01*
X160257142Y-115852380D02*
X159780952Y-115852380D01*
X159733333Y-116328571D01*
X159780952Y-116280952D01*
X159876190Y-116233333D01*
X160114285Y-116233333D01*
X160209523Y-116280952D01*
X160257142Y-116328571D01*
X160304761Y-116423809D01*
X160304761Y-116661904D01*
X160257142Y-116757142D01*
X160209523Y-116804761D01*
X160114285Y-116852380D01*
X159876190Y-116852380D01*
X159780952Y-116804761D01*
X159733333Y-116757142D01*
X160638095Y-116185714D02*
X160876190Y-116852380D01*
X161114285Y-116185714D01*
X125371428Y-99552380D02*
X125990476Y-99552380D01*
X125657142Y-99933333D01*
X125800000Y-99933333D01*
X125895238Y-99980952D01*
X125942857Y-100028571D01*
X125990476Y-100123809D01*
X125990476Y-100361904D01*
X125942857Y-100457142D01*
X125895238Y-100504761D01*
X125800000Y-100552380D01*
X125514285Y-100552380D01*
X125419047Y-100504761D01*
X125371428Y-100457142D01*
X126419047Y-100457142D02*
X126466666Y-100504761D01*
X126419047Y-100552380D01*
X126371428Y-100504761D01*
X126419047Y-100457142D01*
X126419047Y-100552380D01*
X126800000Y-99552380D02*
X127419047Y-99552380D01*
X127085714Y-99933333D01*
X127228571Y-99933333D01*
X127323809Y-99980952D01*
X127371428Y-100028571D01*
X127419047Y-100123809D01*
X127419047Y-100361904D01*
X127371428Y-100457142D01*
X127323809Y-100504761D01*
X127228571Y-100552380D01*
X126942857Y-100552380D01*
X126847619Y-100504761D01*
X126800000Y-100457142D01*
X127752380Y-99885714D02*
X127990476Y-100552380D01*
X128228571Y-99885714D01*
X121529523Y-70504761D02*
X121672380Y-70552380D01*
X121910476Y-70552380D01*
X122005714Y-70504761D01*
X122053333Y-70457142D01*
X122100952Y-70361904D01*
X122100952Y-70266666D01*
X122053333Y-70171428D01*
X122005714Y-70123809D01*
X121910476Y-70076190D01*
X121720000Y-70028571D01*
X121624761Y-69980952D01*
X121577142Y-69933333D01*
X121529523Y-69838095D01*
X121529523Y-69742857D01*
X121577142Y-69647619D01*
X121624761Y-69600000D01*
X121720000Y-69552380D01*
X121958095Y-69552380D01*
X122100952Y-69600000D01*
X123100952Y-70457142D02*
X123053333Y-70504761D01*
X122910476Y-70552380D01*
X122815238Y-70552380D01*
X122672380Y-70504761D01*
X122577142Y-70409523D01*
X122529523Y-70314285D01*
X122481904Y-70123809D01*
X122481904Y-69980952D01*
X122529523Y-69790476D01*
X122577142Y-69695238D01*
X122672380Y-69600000D01*
X122815238Y-69552380D01*
X122910476Y-69552380D01*
X123053333Y-69600000D01*
X123100952Y-69647619D01*
X124005714Y-70552380D02*
X123529523Y-70552380D01*
X123529523Y-69552380D01*
X168961904Y-69100000D02*
X168866666Y-69052380D01*
X168723809Y-69052380D01*
X168580952Y-69100000D01*
X168485714Y-69195238D01*
X168438095Y-69290476D01*
X168390476Y-69480952D01*
X168390476Y-69623809D01*
X168438095Y-69814285D01*
X168485714Y-69909523D01*
X168580952Y-70004761D01*
X168723809Y-70052380D01*
X168819047Y-70052380D01*
X168961904Y-70004761D01*
X169009523Y-69957142D01*
X169009523Y-69623809D01*
X168819047Y-69623809D01*
X124161904Y-99600000D02*
X124066666Y-99552380D01*
X123923809Y-99552380D01*
X123780952Y-99600000D01*
X123685714Y-99695238D01*
X123638095Y-99790476D01*
X123590476Y-99980952D01*
X123590476Y-100123809D01*
X123638095Y-100314285D01*
X123685714Y-100409523D01*
X123780952Y-100504761D01*
X123923809Y-100552380D01*
X124019047Y-100552380D01*
X124161904Y-100504761D01*
X124209523Y-100457142D01*
X124209523Y-100123809D01*
X124019047Y-100123809D01*
X130361904Y-63400000D02*
X130266666Y-63352380D01*
X130123809Y-63352380D01*
X129980952Y-63400000D01*
X129885714Y-63495238D01*
X129838095Y-63590476D01*
X129790476Y-63780952D01*
X129790476Y-63923809D01*
X129838095Y-64114285D01*
X129885714Y-64209523D01*
X129980952Y-64304761D01*
X130123809Y-64352380D01*
X130219047Y-64352380D01*
X130361904Y-64304761D01*
X130409523Y-64257142D01*
X130409523Y-63923809D01*
X130219047Y-63923809D01*
X159157142Y-125852380D02*
X158680952Y-125852380D01*
X158633333Y-126328571D01*
X158680952Y-126280952D01*
X158776190Y-126233333D01*
X159014285Y-126233333D01*
X159109523Y-126280952D01*
X159157142Y-126328571D01*
X159204761Y-126423809D01*
X159204761Y-126661904D01*
X159157142Y-126757142D01*
X159109523Y-126804761D01*
X159014285Y-126852380D01*
X158776190Y-126852380D01*
X158680952Y-126804761D01*
X158633333Y-126757142D01*
X159538095Y-126185714D02*
X159776190Y-126852380D01*
X160014285Y-126185714D01*
X174361904Y-58000000D02*
X174266666Y-57952380D01*
X174123809Y-57952380D01*
X173980952Y-58000000D01*
X173885714Y-58095238D01*
X173838095Y-58190476D01*
X173790476Y-58380952D01*
X173790476Y-58523809D01*
X173838095Y-58714285D01*
X173885714Y-58809523D01*
X173980952Y-58904761D01*
X174123809Y-58952380D01*
X174219047Y-58952380D01*
X174361904Y-58904761D01*
X174409523Y-58857142D01*
X174409523Y-58523809D01*
X174219047Y-58523809D01*
X120009523Y-100504761D02*
X120152380Y-100552380D01*
X120390476Y-100552380D01*
X120485714Y-100504761D01*
X120533333Y-100457142D01*
X120580952Y-100361904D01*
X120580952Y-100266666D01*
X120533333Y-100171428D01*
X120485714Y-100123809D01*
X120390476Y-100076190D01*
X120200000Y-100028571D01*
X120104761Y-99980952D01*
X120057142Y-99933333D01*
X120009523Y-99838095D01*
X120009523Y-99742857D01*
X120057142Y-99647619D01*
X120104761Y-99600000D01*
X120200000Y-99552380D01*
X120438095Y-99552380D01*
X120580952Y-99600000D01*
X121580952Y-100457142D02*
X121533333Y-100504761D01*
X121390476Y-100552380D01*
X121295238Y-100552380D01*
X121152380Y-100504761D01*
X121057142Y-100409523D01*
X121009523Y-100314285D01*
X120961904Y-100123809D01*
X120961904Y-99980952D01*
X121009523Y-99790476D01*
X121057142Y-99695238D01*
X121152380Y-99600000D01*
X121295238Y-99552380D01*
X121390476Y-99552380D01*
X121533333Y-99600000D01*
X121580952Y-99647619D01*
X122485714Y-100552380D02*
X122009523Y-100552380D01*
X122009523Y-99552380D01*
X161161904Y-63700000D02*
X161066666Y-63652380D01*
X160923809Y-63652380D01*
X160780952Y-63700000D01*
X160685714Y-63795238D01*
X160638095Y-63890476D01*
X160590476Y-64080952D01*
X160590476Y-64223809D01*
X160638095Y-64414285D01*
X160685714Y-64509523D01*
X160780952Y-64604761D01*
X160923809Y-64652380D01*
X161019047Y-64652380D01*
X161161904Y-64604761D01*
X161209523Y-64557142D01*
X161209523Y-64223809D01*
X161019047Y-64223809D01*
X173406904Y-131300000D02*
X173311666Y-131252380D01*
X173168809Y-131252380D01*
X173025952Y-131300000D01*
X172930714Y-131395238D01*
X172883095Y-131490476D01*
X172835476Y-131680952D01*
X172835476Y-131823809D01*
X172883095Y-132014285D01*
X172930714Y-132109523D01*
X173025952Y-132204761D01*
X173168809Y-132252380D01*
X173264047Y-132252380D01*
X173406904Y-132204761D01*
X173454523Y-132157142D01*
X173454523Y-131823809D01*
X173264047Y-131823809D01*
X160661904Y-118500000D02*
X160566666Y-118452380D01*
X160423809Y-118452380D01*
X160280952Y-118500000D01*
X160185714Y-118595238D01*
X160138095Y-118690476D01*
X160090476Y-118880952D01*
X160090476Y-119023809D01*
X160138095Y-119214285D01*
X160185714Y-119309523D01*
X160280952Y-119404761D01*
X160423809Y-119452380D01*
X160519047Y-119452380D01*
X160661904Y-119404761D01*
X160709523Y-119357142D01*
X160709523Y-119023809D01*
X160519047Y-119023809D01*
X116114285Y-132804761D02*
X116257142Y-132852380D01*
X116495238Y-132852380D01*
X116590476Y-132804761D01*
X116638095Y-132757142D01*
X116685714Y-132661904D01*
X116685714Y-132566666D01*
X116638095Y-132471428D01*
X116590476Y-132423809D01*
X116495238Y-132376190D01*
X116304761Y-132328571D01*
X116209523Y-132280952D01*
X116161904Y-132233333D01*
X116114285Y-132138095D01*
X116114285Y-132042857D01*
X116161904Y-131947619D01*
X116209523Y-131900000D01*
X116304761Y-131852380D01*
X116542857Y-131852380D01*
X116685714Y-131900000D01*
X158057142Y-63652380D02*
X157580952Y-63652380D01*
X157533333Y-64128571D01*
X157580952Y-64080952D01*
X157676190Y-64033333D01*
X157914285Y-64033333D01*
X158009523Y-64080952D01*
X158057142Y-64128571D01*
X158104761Y-64223809D01*
X158104761Y-64461904D01*
X158057142Y-64557142D01*
X158009523Y-64604761D01*
X157914285Y-64652380D01*
X157676190Y-64652380D01*
X157580952Y-64604761D01*
X157533333Y-64557142D01*
X158438095Y-63985714D02*
X158676190Y-64652380D01*
X158914285Y-63985714D01*
X176757142Y-57952380D02*
X176280952Y-57952380D01*
X176233333Y-58428571D01*
X176280952Y-58380952D01*
X176376190Y-58333333D01*
X176614285Y-58333333D01*
X176709523Y-58380952D01*
X176757142Y-58428571D01*
X176804761Y-58523809D01*
X176804761Y-58761904D01*
X176757142Y-58857142D01*
X176709523Y-58904761D01*
X176614285Y-58952380D01*
X176376190Y-58952380D01*
X176280952Y-58904761D01*
X176233333Y-58857142D01*
X177138095Y-58285714D02*
X177376190Y-58952380D01*
X177614285Y-58285714D01*
X125881904Y-69600000D02*
X125786666Y-69552380D01*
X125643809Y-69552380D01*
X125500952Y-69600000D01*
X125405714Y-69695238D01*
X125358095Y-69790476D01*
X125310476Y-69980952D01*
X125310476Y-70123809D01*
X125358095Y-70314285D01*
X125405714Y-70409523D01*
X125500952Y-70504761D01*
X125643809Y-70552380D01*
X125739047Y-70552380D01*
X125881904Y-70504761D01*
X125929523Y-70457142D01*
X125929523Y-70123809D01*
X125739047Y-70123809D01*
X127677142Y-69552380D02*
X127200952Y-69552380D01*
X127153333Y-70028571D01*
X127200952Y-69980952D01*
X127296190Y-69933333D01*
X127534285Y-69933333D01*
X127629523Y-69980952D01*
X127677142Y-70028571D01*
X127724761Y-70123809D01*
X127724761Y-70361904D01*
X127677142Y-70457142D01*
X127629523Y-70504761D01*
X127534285Y-70552380D01*
X127296190Y-70552380D01*
X127200952Y-70504761D01*
X127153333Y-70457142D01*
X128058095Y-69885714D02*
X128296190Y-70552380D01*
X128534285Y-69885714D01*
X178259285Y-132204761D02*
X178402142Y-132252380D01*
X178640238Y-132252380D01*
X178735476Y-132204761D01*
X178783095Y-132157142D01*
X178830714Y-132061904D01*
X178830714Y-131966666D01*
X178783095Y-131871428D01*
X178735476Y-131823809D01*
X178640238Y-131776190D01*
X178449761Y-131728571D01*
X178354523Y-131680952D01*
X178306904Y-131633333D01*
X178259285Y-131538095D01*
X178259285Y-131442857D01*
X178306904Y-131347619D01*
X178354523Y-131300000D01*
X178449761Y-131252380D01*
X178687857Y-131252380D01*
X178830714Y-131300000D01*
X179314285Y-58904761D02*
X179457142Y-58952380D01*
X179695238Y-58952380D01*
X179790476Y-58904761D01*
X179838095Y-58857142D01*
X179885714Y-58761904D01*
X179885714Y-58666666D01*
X179838095Y-58571428D01*
X179790476Y-58523809D01*
X179695238Y-58476190D01*
X179504761Y-58428571D01*
X179409523Y-58380952D01*
X179361904Y-58333333D01*
X179314285Y-58238095D01*
X179314285Y-58142857D01*
X179361904Y-58047619D01*
X179409523Y-58000000D01*
X179504761Y-57952380D01*
X179742857Y-57952380D01*
X179885714Y-58000000D01*
X132657142Y-63352380D02*
X132180952Y-63352380D01*
X132133333Y-63828571D01*
X132180952Y-63780952D01*
X132276190Y-63733333D01*
X132514285Y-63733333D01*
X132609523Y-63780952D01*
X132657142Y-63828571D01*
X132704761Y-63923809D01*
X132704761Y-64161904D01*
X132657142Y-64257142D01*
X132609523Y-64304761D01*
X132514285Y-64352380D01*
X132276190Y-64352380D01*
X132180952Y-64304761D01*
X132133333Y-64257142D01*
X133038095Y-63685714D02*
X133276190Y-64352380D01*
X133514285Y-63685714D01*
X156533333Y-126852380D02*
X156200000Y-126376190D01*
X155961904Y-126852380D02*
X155961904Y-125852380D01*
X156342857Y-125852380D01*
X156438095Y-125900000D01*
X156485714Y-125947619D01*
X156533333Y-126042857D01*
X156533333Y-126185714D01*
X156485714Y-126280952D01*
X156438095Y-126328571D01*
X156342857Y-126376190D01*
X155961904Y-126376190D01*
X156866666Y-125852380D02*
X157533333Y-126852380D01*
X157533333Y-125852380D02*
X156866666Y-126852380D01*
X110761904Y-57800000D02*
X110666666Y-57752380D01*
X110523809Y-57752380D01*
X110380952Y-57800000D01*
X110285714Y-57895238D01*
X110238095Y-57990476D01*
X110190476Y-58180952D01*
X110190476Y-58323809D01*
X110238095Y-58514285D01*
X110285714Y-58609523D01*
X110380952Y-58704761D01*
X110523809Y-58752380D01*
X110619047Y-58752380D01*
X110761904Y-58704761D01*
X110809523Y-58657142D01*
X110809523Y-58323809D01*
X110619047Y-58323809D01*
X111361904Y-131900000D02*
X111266666Y-131852380D01*
X111123809Y-131852380D01*
X110980952Y-131900000D01*
X110885714Y-131995238D01*
X110838095Y-132090476D01*
X110790476Y-132280952D01*
X110790476Y-132423809D01*
X110838095Y-132614285D01*
X110885714Y-132709523D01*
X110980952Y-132804761D01*
X111123809Y-132852380D01*
X111219047Y-132852380D01*
X111361904Y-132804761D01*
X111409523Y-132757142D01*
X111409523Y-132423809D01*
X111219047Y-132423809D01*
X170209523Y-70004761D02*
X170352380Y-70052380D01*
X170590476Y-70052380D01*
X170685714Y-70004761D01*
X170733333Y-69957142D01*
X170780952Y-69861904D01*
X170780952Y-69766666D01*
X170733333Y-69671428D01*
X170685714Y-69623809D01*
X170590476Y-69576190D01*
X170400000Y-69528571D01*
X170304761Y-69480952D01*
X170257142Y-69433333D01*
X170209523Y-69338095D01*
X170209523Y-69242857D01*
X170257142Y-69147619D01*
X170304761Y-69100000D01*
X170400000Y-69052380D01*
X170638095Y-69052380D01*
X170780952Y-69100000D01*
X171780952Y-69957142D02*
X171733333Y-70004761D01*
X171590476Y-70052380D01*
X171495238Y-70052380D01*
X171352380Y-70004761D01*
X171257142Y-69909523D01*
X171209523Y-69814285D01*
X171161904Y-69623809D01*
X171161904Y-69480952D01*
X171209523Y-69290476D01*
X171257142Y-69195238D01*
X171352380Y-69100000D01*
X171495238Y-69052380D01*
X171590476Y-69052380D01*
X171733333Y-69100000D01*
X171780952Y-69147619D01*
X172685714Y-70052380D02*
X172209523Y-70052380D01*
X172209523Y-69052380D01*
X166157142Y-69052380D02*
X165680952Y-69052380D01*
X165633333Y-69528571D01*
X165680952Y-69480952D01*
X165776190Y-69433333D01*
X166014285Y-69433333D01*
X166109523Y-69480952D01*
X166157142Y-69528571D01*
X166204761Y-69623809D01*
X166204761Y-69861904D01*
X166157142Y-69957142D01*
X166109523Y-70004761D01*
X166014285Y-70052380D01*
X165776190Y-70052380D01*
X165680952Y-70004761D01*
X165633333Y-69957142D01*
X166538095Y-69385714D02*
X166776190Y-70052380D01*
X167014285Y-69385714D01*
X160133333Y-114252380D02*
X159800000Y-113776190D01*
X159561904Y-114252380D02*
X159561904Y-113252380D01*
X159942857Y-113252380D01*
X160038095Y-113300000D01*
X160085714Y-113347619D01*
X160133333Y-113442857D01*
X160133333Y-113585714D01*
X160085714Y-113680952D01*
X160038095Y-113728571D01*
X159942857Y-113776190D01*
X159561904Y-113776190D01*
X160466666Y-113252380D02*
X161133333Y-114252380D01*
X161133333Y-113252380D02*
X160466666Y-114252380D01*
X116685714Y-100504761D02*
X116828571Y-100552380D01*
X117066666Y-100552380D01*
X117161904Y-100504761D01*
X117209523Y-100457142D01*
X117257142Y-100361904D01*
X117257142Y-100266666D01*
X117209523Y-100171428D01*
X117161904Y-100123809D01*
X117066666Y-100076190D01*
X116876190Y-100028571D01*
X116780952Y-99980952D01*
X116733333Y-99933333D01*
X116685714Y-99838095D01*
X116685714Y-99742857D01*
X116733333Y-99647619D01*
X116780952Y-99600000D01*
X116876190Y-99552380D01*
X117114285Y-99552380D01*
X117257142Y-99600000D01*
X117685714Y-100552380D02*
X117685714Y-99552380D01*
X117923809Y-99552380D01*
X118066666Y-99600000D01*
X118161904Y-99695238D01*
X118209523Y-99790476D01*
X118257142Y-99980952D01*
X118257142Y-100123809D01*
X118209523Y-100314285D01*
X118161904Y-100409523D01*
X118066666Y-100504761D01*
X117923809Y-100552380D01*
X117685714Y-100552380D01*
X118638095Y-100266666D02*
X119114285Y-100266666D01*
X118542857Y-100552380D02*
X118876190Y-99552380D01*
X119209523Y-100552380D01*
X159438095Y-110652380D02*
X160009523Y-110652380D01*
X159723809Y-111652380D02*
X159723809Y-110652380D01*
X160247619Y-110652380D02*
X160914285Y-111652380D01*
X160914285Y-110652380D02*
X160247619Y-111652380D01*
X153238095Y-125852380D02*
X153809523Y-125852380D01*
X153523809Y-126852380D02*
X153523809Y-125852380D01*
X154047619Y-125852380D02*
X154714285Y-126852380D01*
X154714285Y-125852380D02*
X154047619Y-126852380D01*
X152338095Y-63752380D02*
X152909523Y-63752380D01*
X152623809Y-64752380D02*
X152623809Y-63752380D01*
X153147619Y-63752380D02*
X153814285Y-64752380D01*
X153814285Y-63752380D02*
X153147619Y-64752380D01*
X161961904Y-125900000D02*
X161866666Y-125852380D01*
X161723809Y-125852380D01*
X161580952Y-125900000D01*
X161485714Y-125995238D01*
X161438095Y-126090476D01*
X161390476Y-126280952D01*
X161390476Y-126423809D01*
X161438095Y-126614285D01*
X161485714Y-126709523D01*
X161580952Y-126804761D01*
X161723809Y-126852380D01*
X161819047Y-126852380D01*
X161961904Y-126804761D01*
X162009523Y-126757142D01*
X162009523Y-126423809D01*
X161819047Y-126423809D01*
X118305714Y-70504761D02*
X118448571Y-70552380D01*
X118686666Y-70552380D01*
X118781904Y-70504761D01*
X118829523Y-70457142D01*
X118877142Y-70361904D01*
X118877142Y-70266666D01*
X118829523Y-70171428D01*
X118781904Y-70123809D01*
X118686666Y-70076190D01*
X118496190Y-70028571D01*
X118400952Y-69980952D01*
X118353333Y-69933333D01*
X118305714Y-69838095D01*
X118305714Y-69742857D01*
X118353333Y-69647619D01*
X118400952Y-69600000D01*
X118496190Y-69552380D01*
X118734285Y-69552380D01*
X118877142Y-69600000D01*
X119305714Y-70552380D02*
X119305714Y-69552380D01*
X119543809Y-69552380D01*
X119686666Y-69600000D01*
X119781904Y-69695238D01*
X119829523Y-69790476D01*
X119877142Y-69980952D01*
X119877142Y-70123809D01*
X119829523Y-70314285D01*
X119781904Y-70409523D01*
X119686666Y-70504761D01*
X119543809Y-70552380D01*
X119305714Y-70552380D01*
X120258095Y-70266666D02*
X120734285Y-70266666D01*
X120162857Y-70552380D02*
X120496190Y-69552380D01*
X120829523Y-70552380D01*
X135114285Y-64304761D02*
X135257142Y-64352380D01*
X135495238Y-64352380D01*
X135590476Y-64304761D01*
X135638095Y-64257142D01*
X135685714Y-64161904D01*
X135685714Y-64066666D01*
X135638095Y-63971428D01*
X135590476Y-63923809D01*
X135495238Y-63876190D01*
X135304761Y-63828571D01*
X135209523Y-63780952D01*
X135161904Y-63733333D01*
X135114285Y-63638095D01*
X135114285Y-63542857D01*
X135161904Y-63447619D01*
X135209523Y-63400000D01*
X135304761Y-63352380D01*
X135542857Y-63352380D01*
X135685714Y-63400000D01*
X115414285Y-58704761D02*
X115557142Y-58752380D01*
X115795238Y-58752380D01*
X115890476Y-58704761D01*
X115938095Y-58657142D01*
X115985714Y-58561904D01*
X115985714Y-58466666D01*
X115938095Y-58371428D01*
X115890476Y-58323809D01*
X115795238Y-58276190D01*
X115604761Y-58228571D01*
X115509523Y-58180952D01*
X115461904Y-58133333D01*
X115414285Y-58038095D01*
X115414285Y-57942857D01*
X115461904Y-57847619D01*
X115509523Y-57800000D01*
X115604761Y-57752380D01*
X115842857Y-57752380D01*
X115985714Y-57800000D01*
X173485714Y-70004761D02*
X173628571Y-70052380D01*
X173866666Y-70052380D01*
X173961904Y-70004761D01*
X174009523Y-69957142D01*
X174057142Y-69861904D01*
X174057142Y-69766666D01*
X174009523Y-69671428D01*
X173961904Y-69623809D01*
X173866666Y-69576190D01*
X173676190Y-69528571D01*
X173580952Y-69480952D01*
X173533333Y-69433333D01*
X173485714Y-69338095D01*
X173485714Y-69242857D01*
X173533333Y-69147619D01*
X173580952Y-69100000D01*
X173676190Y-69052380D01*
X173914285Y-69052380D01*
X174057142Y-69100000D01*
X174485714Y-70052380D02*
X174485714Y-69052380D01*
X174723809Y-69052380D01*
X174866666Y-69100000D01*
X174961904Y-69195238D01*
X175009523Y-69290476D01*
X175057142Y-69480952D01*
X175057142Y-69623809D01*
X175009523Y-69814285D01*
X174961904Y-69909523D01*
X174866666Y-70004761D01*
X174723809Y-70052380D01*
X174485714Y-70052380D01*
X175438095Y-69766666D02*
X175914285Y-69766666D01*
X175342857Y-70052380D02*
X175676190Y-69052380D01*
X176009523Y-70052380D01*
D12*
%TO.C,U1*%
X141687619Y-117353714D02*
X141687619Y-117910857D01*
X141306666Y-117610857D01*
X141306666Y-117739428D01*
X141259047Y-117825142D01*
X141211428Y-117868000D01*
X141116190Y-117910857D01*
X140878095Y-117910857D01*
X140782857Y-117868000D01*
X140735238Y-117825142D01*
X140687619Y-117739428D01*
X140687619Y-117482285D01*
X140735238Y-117396571D01*
X140782857Y-117353714D01*
X141687619Y-118168000D02*
X140687619Y-118468000D01*
X141687619Y-118768000D01*
X141687619Y-118982285D02*
X141687619Y-119539428D01*
X141306666Y-119239428D01*
X141306666Y-119368000D01*
X141259047Y-119453714D01*
X141211428Y-119496571D01*
X141116190Y-119539428D01*
X140878095Y-119539428D01*
X140782857Y-119496571D01*
X140735238Y-119453714D01*
X140687619Y-119368000D01*
X140687619Y-119110857D01*
X140735238Y-119025142D01*
X140782857Y-118982285D01*
X143275238Y-117225142D02*
X143227619Y-117353714D01*
X143227619Y-117568000D01*
X143275238Y-117653714D01*
X143322857Y-117696571D01*
X143418095Y-117739428D01*
X143513333Y-117739428D01*
X143608571Y-117696571D01*
X143656190Y-117653714D01*
X143703809Y-117568000D01*
X143751428Y-117396571D01*
X143799047Y-117310857D01*
X143846666Y-117268000D01*
X143941904Y-117225142D01*
X144037142Y-117225142D01*
X144132380Y-117268000D01*
X144180000Y-117310857D01*
X144227619Y-117396571D01*
X144227619Y-117610857D01*
X144180000Y-117739428D01*
X144227619Y-118039428D02*
X143227619Y-118253714D01*
X143941904Y-118425142D01*
X143227619Y-118596571D01*
X144227619Y-118810857D01*
X144227619Y-119325142D02*
X144227619Y-119496571D01*
X144180000Y-119582285D01*
X144084761Y-119668000D01*
X143894285Y-119710857D01*
X143560952Y-119710857D01*
X143370476Y-119668000D01*
X143275238Y-119582285D01*
X143227619Y-119496571D01*
X143227619Y-119325142D01*
X143275238Y-119239428D01*
X143370476Y-119153714D01*
X143560952Y-119110857D01*
X143894285Y-119110857D01*
X144084761Y-119153714D01*
X144180000Y-119239428D01*
X144227619Y-119325142D01*
X145815238Y-117194285D02*
X145767619Y-117322857D01*
X145767619Y-117537142D01*
X145815238Y-117622857D01*
X145862857Y-117665714D01*
X145958095Y-117708571D01*
X146053333Y-117708571D01*
X146148571Y-117665714D01*
X146196190Y-117622857D01*
X146243809Y-117537142D01*
X146291428Y-117365714D01*
X146339047Y-117280000D01*
X146386666Y-117237142D01*
X146481904Y-117194285D01*
X146577142Y-117194285D01*
X146672380Y-117237142D01*
X146720000Y-117280000D01*
X146767619Y-117365714D01*
X146767619Y-117580000D01*
X146720000Y-117708571D01*
X146767619Y-118008571D02*
X145767619Y-118222857D01*
X146481904Y-118394285D01*
X145767619Y-118565714D01*
X146767619Y-118780000D01*
X145862857Y-119637142D02*
X145815238Y-119594285D01*
X145767619Y-119465714D01*
X145767619Y-119380000D01*
X145815238Y-119251428D01*
X145910476Y-119165714D01*
X146005714Y-119122857D01*
X146196190Y-119080000D01*
X146339047Y-119080000D01*
X146529523Y-119122857D01*
X146624761Y-119165714D01*
X146720000Y-119251428D01*
X146767619Y-119380000D01*
X146767619Y-119465714D01*
X146720000Y-119594285D01*
X146672380Y-119637142D01*
X145767619Y-120451428D02*
X145767619Y-120022857D01*
X146767619Y-120022857D01*
X145767619Y-120751428D02*
X146767619Y-120751428D01*
X145767619Y-121265714D02*
X146339047Y-120880000D01*
X146767619Y-121265714D02*
X146196190Y-120751428D01*
X149260000Y-117782285D02*
X149307619Y-117696571D01*
X149307619Y-117568000D01*
X149260000Y-117439428D01*
X149164761Y-117353714D01*
X149069523Y-117310857D01*
X148879047Y-117268000D01*
X148736190Y-117268000D01*
X148545714Y-117310857D01*
X148450476Y-117353714D01*
X148355238Y-117439428D01*
X148307619Y-117568000D01*
X148307619Y-117653714D01*
X148355238Y-117782285D01*
X148402857Y-117825142D01*
X148736190Y-117825142D01*
X148736190Y-117653714D01*
X148307619Y-118210857D02*
X149307619Y-118210857D01*
X148307619Y-118725142D01*
X149307619Y-118725142D01*
X148307619Y-119153714D02*
X149307619Y-119153714D01*
X149307619Y-119368000D01*
X149260000Y-119496571D01*
X149164761Y-119582285D01*
X149069523Y-119625142D01*
X148879047Y-119668000D01*
X148736190Y-119668000D01*
X148545714Y-119625142D01*
X148450476Y-119582285D01*
X148355238Y-119496571D01*
X148307619Y-119368000D01*
X148307619Y-119153714D01*
%TO.C,J5*%
X110180952Y-64052380D02*
X110180952Y-63052380D01*
X110514285Y-63766666D01*
X110847619Y-63052380D01*
X110847619Y-64052380D01*
X111514285Y-63052380D02*
X111704761Y-63052380D01*
X111800000Y-63100000D01*
X111895238Y-63195238D01*
X111942857Y-63385714D01*
X111942857Y-63719047D01*
X111895238Y-63909523D01*
X111800000Y-64004761D01*
X111704761Y-64052380D01*
X111514285Y-64052380D01*
X111419047Y-64004761D01*
X111323809Y-63909523D01*
X111276190Y-63719047D01*
X111276190Y-63385714D01*
X111323809Y-63195238D01*
X111419047Y-63100000D01*
X111514285Y-63052380D01*
X112228571Y-63052380D02*
X112800000Y-63052380D01*
X112514285Y-64052380D02*
X112514285Y-63052380D01*
X113323809Y-63052380D02*
X113514285Y-63052380D01*
X113609523Y-63100000D01*
X113704761Y-63195238D01*
X113752380Y-63385714D01*
X113752380Y-63719047D01*
X113704761Y-63909523D01*
X113609523Y-64004761D01*
X113514285Y-64052380D01*
X113323809Y-64052380D01*
X113228571Y-64004761D01*
X113133333Y-63909523D01*
X113085714Y-63719047D01*
X113085714Y-63385714D01*
X113133333Y-63195238D01*
X113228571Y-63100000D01*
X113323809Y-63052380D01*
X114752380Y-64052380D02*
X114419047Y-63576190D01*
X114180952Y-64052380D02*
X114180952Y-63052380D01*
X114561904Y-63052380D01*
X114657142Y-63100000D01*
X114704761Y-63147619D01*
X114752380Y-63242857D01*
X114752380Y-63385714D01*
X114704761Y-63480952D01*
X114657142Y-63528571D01*
X114561904Y-63576190D01*
X114180952Y-63576190D01*
X116371428Y-63385714D02*
X116371428Y-64052380D01*
X116133333Y-63004761D02*
X115895238Y-63719047D01*
X116514285Y-63719047D01*
%TO.C,J6*%
X176476190Y-106252380D02*
X176809523Y-107252380D01*
X177142857Y-106252380D01*
X178047619Y-107157142D02*
X178000000Y-107204761D01*
X177857142Y-107252380D01*
X177761904Y-107252380D01*
X177619047Y-107204761D01*
X177523809Y-107109523D01*
X177476190Y-107014285D01*
X177428571Y-106823809D01*
X177428571Y-106680952D01*
X177476190Y-106490476D01*
X177523809Y-106395238D01*
X177619047Y-106300000D01*
X177761904Y-106252380D01*
X177857142Y-106252380D01*
X178000000Y-106300000D01*
X178047619Y-106347619D01*
X179047619Y-107157142D02*
X179000000Y-107204761D01*
X178857142Y-107252380D01*
X178761904Y-107252380D01*
X178619047Y-107204761D01*
X178523809Y-107109523D01*
X178476190Y-107014285D01*
X178428571Y-106823809D01*
X178428571Y-106680952D01*
X178476190Y-106490476D01*
X178523809Y-106395238D01*
X178619047Y-106300000D01*
X178761904Y-106252380D01*
X178857142Y-106252380D01*
X179000000Y-106300000D01*
X179047619Y-106347619D01*
X179238095Y-107347619D02*
X180000000Y-107347619D01*
X180571428Y-106728571D02*
X180714285Y-106776190D01*
X180761904Y-106823809D01*
X180809523Y-106919047D01*
X180809523Y-107061904D01*
X180761904Y-107157142D01*
X180714285Y-107204761D01*
X180619047Y-107252380D01*
X180238095Y-107252380D01*
X180238095Y-106252380D01*
X180571428Y-106252380D01*
X180666666Y-106300000D01*
X180714285Y-106347619D01*
X180761904Y-106442857D01*
X180761904Y-106538095D01*
X180714285Y-106633333D01*
X180666666Y-106680952D01*
X180571428Y-106728571D01*
X180238095Y-106728571D01*
X181190476Y-106966666D02*
X181666666Y-106966666D01*
X181095238Y-107252380D02*
X181428571Y-106252380D01*
X181761904Y-107252380D01*
X181952380Y-106252380D02*
X182523809Y-106252380D01*
X182238095Y-107252380D02*
X182238095Y-106252380D01*
D10*
%TO.C,R4*%
X164821428Y-97804761D02*
X163678571Y-97804761D01*
X164250000Y-97804761D02*
X164250000Y-95804761D01*
X164059523Y-96090476D01*
X163869047Y-96280952D01*
X163678571Y-96376190D01*
X165678571Y-97804761D02*
X165678571Y-95804761D01*
X166821428Y-97804761D02*
X165964285Y-96661904D01*
X166821428Y-95804761D02*
X165678571Y-96947619D01*
D12*
%TO.C,J4*%
X110580952Y-127952380D02*
X110580952Y-126952380D01*
X110914285Y-127666666D01*
X111247619Y-126952380D01*
X111247619Y-127952380D01*
X111914285Y-126952380D02*
X112104761Y-126952380D01*
X112200000Y-127000000D01*
X112295238Y-127095238D01*
X112342857Y-127285714D01*
X112342857Y-127619047D01*
X112295238Y-127809523D01*
X112200000Y-127904761D01*
X112104761Y-127952380D01*
X111914285Y-127952380D01*
X111819047Y-127904761D01*
X111723809Y-127809523D01*
X111676190Y-127619047D01*
X111676190Y-127285714D01*
X111723809Y-127095238D01*
X111819047Y-127000000D01*
X111914285Y-126952380D01*
X112628571Y-126952380D02*
X113200000Y-126952380D01*
X112914285Y-127952380D02*
X112914285Y-126952380D01*
X113723809Y-126952380D02*
X113914285Y-126952380D01*
X114009523Y-127000000D01*
X114104761Y-127095238D01*
X114152380Y-127285714D01*
X114152380Y-127619047D01*
X114104761Y-127809523D01*
X114009523Y-127904761D01*
X113914285Y-127952380D01*
X113723809Y-127952380D01*
X113628571Y-127904761D01*
X113533333Y-127809523D01*
X113485714Y-127619047D01*
X113485714Y-127285714D01*
X113533333Y-127095238D01*
X113628571Y-127000000D01*
X113723809Y-126952380D01*
X115152380Y-127952380D02*
X114819047Y-127476190D01*
X114580952Y-127952380D02*
X114580952Y-126952380D01*
X114961904Y-126952380D01*
X115057142Y-127000000D01*
X115104761Y-127047619D01*
X115152380Y-127142857D01*
X115152380Y-127285714D01*
X115104761Y-127380952D01*
X115057142Y-127428571D01*
X114961904Y-127476190D01*
X114580952Y-127476190D01*
X116247619Y-126952380D02*
X116866666Y-126952380D01*
X116533333Y-127333333D01*
X116676190Y-127333333D01*
X116771428Y-127380952D01*
X116819047Y-127428571D01*
X116866666Y-127523809D01*
X116866666Y-127761904D01*
X116819047Y-127857142D01*
X116771428Y-127904761D01*
X116676190Y-127952380D01*
X116390476Y-127952380D01*
X116295238Y-127904761D01*
X116247619Y-127857142D01*
D10*
%TO.C,J11*%
X111971428Y-111204761D02*
X111971428Y-109204761D01*
X112638095Y-110633333D01*
X113304761Y-109204761D01*
X113304761Y-111204761D01*
X114161904Y-111109523D02*
X114447619Y-111204761D01*
X114923809Y-111204761D01*
X115114285Y-111109523D01*
X115209523Y-111014285D01*
X115304761Y-110823809D01*
X115304761Y-110633333D01*
X115209523Y-110442857D01*
X115114285Y-110347619D01*
X114923809Y-110252380D01*
X114542857Y-110157142D01*
X114352380Y-110061904D01*
X114257142Y-109966666D01*
X114161904Y-109776190D01*
X114161904Y-109585714D01*
X114257142Y-109395238D01*
X114352380Y-109300000D01*
X114542857Y-109204761D01*
X115019047Y-109204761D01*
X115304761Y-109300000D01*
X117114285Y-109204761D02*
X116161904Y-109204761D01*
X116066666Y-110157142D01*
X116161904Y-110061904D01*
X116352380Y-109966666D01*
X116828571Y-109966666D01*
X117019047Y-110061904D01*
X117114285Y-110157142D01*
X117209523Y-110347619D01*
X117209523Y-110823809D01*
X117114285Y-111014285D01*
X117019047Y-111109523D01*
X116828571Y-111204761D01*
X116352380Y-111204761D01*
X116161904Y-111109523D01*
X116066666Y-111014285D01*
X118923809Y-109204761D02*
X118542857Y-109204761D01*
X118352380Y-109300000D01*
X118257142Y-109395238D01*
X118066666Y-109680952D01*
X117971428Y-110061904D01*
X117971428Y-110823809D01*
X118066666Y-111014285D01*
X118161904Y-111109523D01*
X118352380Y-111204761D01*
X118733333Y-111204761D01*
X118923809Y-111109523D01*
X119019047Y-111014285D01*
X119114285Y-110823809D01*
X119114285Y-110347619D01*
X119019047Y-110157142D01*
X118923809Y-110061904D01*
X118733333Y-109966666D01*
X118352380Y-109966666D01*
X118161904Y-110061904D01*
X118066666Y-110157142D01*
X117971428Y-110347619D01*
X121019047Y-111204761D02*
X119876190Y-111204761D01*
X120447619Y-111204761D02*
X120447619Y-109204761D01*
X120257142Y-109490476D01*
X120066666Y-109680952D01*
X119876190Y-109776190D01*
X122923809Y-111204761D02*
X121780952Y-111204761D01*
X122352380Y-111204761D02*
X122352380Y-109204761D01*
X122161904Y-109490476D01*
X121971428Y-109680952D01*
X121780952Y-109776190D01*
D12*
%TO.C,D2*%
X127987142Y-126492380D02*
X127653809Y-126016190D01*
X127415714Y-126492380D02*
X127415714Y-125492380D01*
X127796666Y-125492380D01*
X127891904Y-125540000D01*
X127939523Y-125587619D01*
X127987142Y-125682857D01*
X127987142Y-125825714D01*
X127939523Y-125920952D01*
X127891904Y-125968571D01*
X127796666Y-126016190D01*
X127415714Y-126016190D01*
X128415714Y-125968571D02*
X128749047Y-125968571D01*
X128891904Y-126492380D02*
X128415714Y-126492380D01*
X128415714Y-125492380D01*
X128891904Y-125492380D01*
X129320476Y-126492380D02*
X129320476Y-125492380D01*
X129558571Y-125492380D01*
X129701428Y-125540000D01*
X129796666Y-125635238D01*
X129844285Y-125730476D01*
X129891904Y-125920952D01*
X129891904Y-126063809D01*
X129844285Y-126254285D01*
X129796666Y-126349523D01*
X129701428Y-126444761D01*
X129558571Y-126492380D01*
X129320476Y-126492380D01*
%TO.C,D1*%
X134438333Y-125640000D02*
X134343095Y-125592380D01*
X134200238Y-125592380D01*
X134057380Y-125640000D01*
X133962142Y-125735238D01*
X133914523Y-125830476D01*
X133866904Y-126020952D01*
X133866904Y-126163809D01*
X133914523Y-126354285D01*
X133962142Y-126449523D01*
X134057380Y-126544761D01*
X134200238Y-126592380D01*
X134295476Y-126592380D01*
X134438333Y-126544761D01*
X134485952Y-126497142D01*
X134485952Y-126163809D01*
X134295476Y-126163809D01*
X135485952Y-126592380D02*
X135152619Y-126116190D01*
X134914523Y-126592380D02*
X134914523Y-125592380D01*
X135295476Y-125592380D01*
X135390714Y-125640000D01*
X135438333Y-125687619D01*
X135485952Y-125782857D01*
X135485952Y-125925714D01*
X135438333Y-126020952D01*
X135390714Y-126068571D01*
X135295476Y-126116190D01*
X134914523Y-126116190D01*
X135914523Y-126068571D02*
X136247857Y-126068571D01*
X136390714Y-126592380D02*
X135914523Y-126592380D01*
X135914523Y-125592380D01*
X136390714Y-125592380D01*
X136819285Y-126068571D02*
X137152619Y-126068571D01*
X137295476Y-126592380D02*
X136819285Y-126592380D01*
X136819285Y-125592380D01*
X137295476Y-125592380D01*
X137724047Y-126592380D02*
X137724047Y-125592380D01*
X138295476Y-126592380D01*
X138295476Y-125592380D01*
%TO.C,J2*%
X173780952Y-63752380D02*
X173780952Y-62752380D01*
X174114285Y-63466666D01*
X174447619Y-62752380D01*
X174447619Y-63752380D01*
X175114285Y-62752380D02*
X175304761Y-62752380D01*
X175400000Y-62800000D01*
X175495238Y-62895238D01*
X175542857Y-63085714D01*
X175542857Y-63419047D01*
X175495238Y-63609523D01*
X175400000Y-63704761D01*
X175304761Y-63752380D01*
X175114285Y-63752380D01*
X175019047Y-63704761D01*
X174923809Y-63609523D01*
X174876190Y-63419047D01*
X174876190Y-63085714D01*
X174923809Y-62895238D01*
X175019047Y-62800000D01*
X175114285Y-62752380D01*
X175828571Y-62752380D02*
X176400000Y-62752380D01*
X176114285Y-63752380D02*
X176114285Y-62752380D01*
X176923809Y-62752380D02*
X177114285Y-62752380D01*
X177209523Y-62800000D01*
X177304761Y-62895238D01*
X177352380Y-63085714D01*
X177352380Y-63419047D01*
X177304761Y-63609523D01*
X177209523Y-63704761D01*
X177114285Y-63752380D01*
X176923809Y-63752380D01*
X176828571Y-63704761D01*
X176733333Y-63609523D01*
X176685714Y-63419047D01*
X176685714Y-63085714D01*
X176733333Y-62895238D01*
X176828571Y-62800000D01*
X176923809Y-62752380D01*
X178352380Y-63752380D02*
X178019047Y-63276190D01*
X177780952Y-63752380D02*
X177780952Y-62752380D01*
X178161904Y-62752380D01*
X178257142Y-62800000D01*
X178304761Y-62847619D01*
X178352380Y-62942857D01*
X178352380Y-63085714D01*
X178304761Y-63180952D01*
X178257142Y-63228571D01*
X178161904Y-63276190D01*
X177780952Y-63276190D01*
X180066666Y-63752380D02*
X179495238Y-63752380D01*
X179780952Y-63752380D02*
X179780952Y-62752380D01*
X179685714Y-62895238D01*
X179590476Y-62990476D01*
X179495238Y-63038095D01*
D10*
%TO.C,R2*%
X116216666Y-124104761D02*
X115073809Y-124104761D01*
X115645238Y-124104761D02*
X115645238Y-122104761D01*
X115454761Y-122390476D01*
X115264285Y-122580952D01*
X115073809Y-122676190D01*
X117454761Y-122104761D02*
X117645238Y-122104761D01*
X117835714Y-122200000D01*
X117930952Y-122295238D01*
X118026190Y-122485714D01*
X118121428Y-122866666D01*
X118121428Y-123342857D01*
X118026190Y-123723809D01*
X117930952Y-123914285D01*
X117835714Y-124009523D01*
X117645238Y-124104761D01*
X117454761Y-124104761D01*
X117264285Y-124009523D01*
X117169047Y-123914285D01*
X117073809Y-123723809D01*
X116978571Y-123342857D01*
X116978571Y-122866666D01*
X117073809Y-122485714D01*
X117169047Y-122295238D01*
X117264285Y-122200000D01*
X117454761Y-122104761D01*
X119359523Y-122104761D02*
X119550000Y-122104761D01*
X119740476Y-122200000D01*
X119835714Y-122295238D01*
X119930952Y-122485714D01*
X120026190Y-122866666D01*
X120026190Y-123342857D01*
X119930952Y-123723809D01*
X119835714Y-123914285D01*
X119740476Y-124009523D01*
X119550000Y-124104761D01*
X119359523Y-124104761D01*
X119169047Y-124009523D01*
X119073809Y-123914285D01*
X118978571Y-123723809D01*
X118883333Y-123342857D01*
X118883333Y-122866666D01*
X118978571Y-122485714D01*
X119073809Y-122295238D01*
X119169047Y-122200000D01*
X119359523Y-122104761D01*
D12*
%TO.C,J3*%
X172825952Y-127152380D02*
X172825952Y-126152380D01*
X173159285Y-126866666D01*
X173492619Y-126152380D01*
X173492619Y-127152380D01*
X174159285Y-126152380D02*
X174349761Y-126152380D01*
X174445000Y-126200000D01*
X174540238Y-126295238D01*
X174587857Y-126485714D01*
X174587857Y-126819047D01*
X174540238Y-127009523D01*
X174445000Y-127104761D01*
X174349761Y-127152380D01*
X174159285Y-127152380D01*
X174064047Y-127104761D01*
X173968809Y-127009523D01*
X173921190Y-126819047D01*
X173921190Y-126485714D01*
X173968809Y-126295238D01*
X174064047Y-126200000D01*
X174159285Y-126152380D01*
X174873571Y-126152380D02*
X175445000Y-126152380D01*
X175159285Y-127152380D02*
X175159285Y-126152380D01*
X175968809Y-126152380D02*
X176159285Y-126152380D01*
X176254523Y-126200000D01*
X176349761Y-126295238D01*
X176397380Y-126485714D01*
X176397380Y-126819047D01*
X176349761Y-127009523D01*
X176254523Y-127104761D01*
X176159285Y-127152380D01*
X175968809Y-127152380D01*
X175873571Y-127104761D01*
X175778333Y-127009523D01*
X175730714Y-126819047D01*
X175730714Y-126485714D01*
X175778333Y-126295238D01*
X175873571Y-126200000D01*
X175968809Y-126152380D01*
X177397380Y-127152380D02*
X177064047Y-126676190D01*
X176825952Y-127152380D02*
X176825952Y-126152380D01*
X177206904Y-126152380D01*
X177302142Y-126200000D01*
X177349761Y-126247619D01*
X177397380Y-126342857D01*
X177397380Y-126485714D01*
X177349761Y-126580952D01*
X177302142Y-126628571D01*
X177206904Y-126676190D01*
X176825952Y-126676190D01*
X178540238Y-126247619D02*
X178587857Y-126200000D01*
X178683095Y-126152380D01*
X178921190Y-126152380D01*
X179016428Y-126200000D01*
X179064047Y-126247619D01*
X179111666Y-126342857D01*
X179111666Y-126438095D01*
X179064047Y-126580952D01*
X178492619Y-127152380D01*
X179111666Y-127152380D01*
D10*
%TO.C,J12*%
X166666666Y-79214285D02*
X166571428Y-79309523D01*
X166285714Y-79404761D01*
X166095238Y-79404761D01*
X165809523Y-79309523D01*
X165619047Y-79119047D01*
X165523809Y-78928571D01*
X165428571Y-78547619D01*
X165428571Y-78261904D01*
X165523809Y-77880952D01*
X165619047Y-77690476D01*
X165809523Y-77500000D01*
X166095238Y-77404761D01*
X166285714Y-77404761D01*
X166571428Y-77500000D01*
X166666666Y-77595238D01*
X167904761Y-77404761D02*
X168285714Y-77404761D01*
X168476190Y-77500000D01*
X168666666Y-77690476D01*
X168761904Y-78071428D01*
X168761904Y-78738095D01*
X168666666Y-79119047D01*
X168476190Y-79309523D01*
X168285714Y-79404761D01*
X167904761Y-79404761D01*
X167714285Y-79309523D01*
X167523809Y-79119047D01*
X167428571Y-78738095D01*
X167428571Y-78071428D01*
X167523809Y-77690476D01*
X167714285Y-77500000D01*
X167904761Y-77404761D01*
X169619047Y-79404761D02*
X169619047Y-77404761D01*
X170285714Y-78833333D01*
X170952380Y-77404761D01*
X170952380Y-79404761D01*
X171904761Y-79404761D02*
X171904761Y-77404761D01*
X172666666Y-77404761D01*
X172857142Y-77500000D01*
X172952380Y-77595238D01*
X173047619Y-77785714D01*
X173047619Y-78071428D01*
X172952380Y-78261904D01*
X172857142Y-78357142D01*
X172666666Y-78452380D01*
X171904761Y-78452380D01*
X173809523Y-78833333D02*
X174761904Y-78833333D01*
X173619047Y-79404761D02*
X174285714Y-77404761D01*
X174952380Y-79404761D01*
X175523809Y-79309523D02*
X175809523Y-79404761D01*
X176285714Y-79404761D01*
X176476190Y-79309523D01*
X176571428Y-79214285D01*
X176666666Y-79023809D01*
X176666666Y-78833333D01*
X176571428Y-78642857D01*
X176476190Y-78547619D01*
X176285714Y-78452380D01*
X175904761Y-78357142D01*
X175714285Y-78261904D01*
X175619047Y-78166666D01*
X175523809Y-77976190D01*
X175523809Y-77785714D01*
X175619047Y-77595238D01*
X175714285Y-77500000D01*
X175904761Y-77404761D01*
X176380952Y-77404761D01*
X176666666Y-77500000D01*
X177428571Y-79309523D02*
X177714285Y-79404761D01*
X178190476Y-79404761D01*
X178380952Y-79309523D01*
X178476190Y-79214285D01*
X178571428Y-79023809D01*
X178571428Y-78833333D01*
X178476190Y-78642857D01*
X178380952Y-78547619D01*
X178190476Y-78452380D01*
X177809523Y-78357142D01*
X177619047Y-78261904D01*
X177523809Y-78166666D01*
X177428571Y-77976190D01*
X177428571Y-77785714D01*
X177523809Y-77595238D01*
X177619047Y-77500000D01*
X177809523Y-77404761D01*
X178285714Y-77404761D01*
X178571428Y-77500000D01*
D12*
%TO.C,J1*%
X130185714Y-59352380D02*
X129852380Y-58876190D01*
X129614285Y-59352380D02*
X129614285Y-58352380D01*
X129995238Y-58352380D01*
X130090476Y-58400000D01*
X130138095Y-58447619D01*
X130185714Y-58542857D01*
X130185714Y-58685714D01*
X130138095Y-58780952D01*
X130090476Y-58828571D01*
X129995238Y-58876190D01*
X129614285Y-58876190D01*
X130614285Y-58828571D02*
X130947619Y-58828571D01*
X131090476Y-59352380D02*
X130614285Y-59352380D01*
X130614285Y-58352380D01*
X131090476Y-58352380D01*
X132090476Y-59257142D02*
X132042857Y-59304761D01*
X131900000Y-59352380D01*
X131804761Y-59352380D01*
X131661904Y-59304761D01*
X131566666Y-59209523D01*
X131519047Y-59114285D01*
X131471428Y-58923809D01*
X131471428Y-58780952D01*
X131519047Y-58590476D01*
X131566666Y-58495238D01*
X131661904Y-58400000D01*
X131804761Y-58352380D01*
X131900000Y-58352380D01*
X132042857Y-58400000D01*
X132090476Y-58447619D01*
X132519047Y-58828571D02*
X132852380Y-58828571D01*
X132995238Y-59352380D02*
X132519047Y-59352380D01*
X132519047Y-58352380D01*
X132995238Y-58352380D01*
X133423809Y-59352380D02*
X133423809Y-58352380D01*
X133757142Y-58352380D02*
X134090476Y-59352380D01*
X134423809Y-58352380D01*
X134757142Y-58828571D02*
X135090476Y-58828571D01*
X135233333Y-59352380D02*
X134757142Y-59352380D01*
X134757142Y-58352380D01*
X135233333Y-58352380D01*
X136233333Y-59352380D02*
X135900000Y-58876190D01*
X135661904Y-59352380D02*
X135661904Y-58352380D01*
X136042857Y-58352380D01*
X136138095Y-58400000D01*
X136185714Y-58447619D01*
X136233333Y-58542857D01*
X136233333Y-58685714D01*
X136185714Y-58780952D01*
X136138095Y-58828571D01*
X136042857Y-58876190D01*
X135661904Y-58876190D01*
%TO.C,J9*%
X162385714Y-107700000D02*
X162290476Y-107652380D01*
X162147619Y-107652380D01*
X162004761Y-107700000D01*
X161909523Y-107795238D01*
X161861904Y-107890476D01*
X161814285Y-108080952D01*
X161814285Y-108223809D01*
X161861904Y-108414285D01*
X161909523Y-108509523D01*
X162004761Y-108604761D01*
X162147619Y-108652380D01*
X162242857Y-108652380D01*
X162385714Y-108604761D01*
X162433333Y-108557142D01*
X162433333Y-108223809D01*
X162242857Y-108223809D01*
X162861904Y-108652380D02*
X162861904Y-107652380D01*
X163242857Y-107652380D01*
X163338095Y-107700000D01*
X163385714Y-107747619D01*
X163433333Y-107842857D01*
X163433333Y-107985714D01*
X163385714Y-108080952D01*
X163338095Y-108128571D01*
X163242857Y-108176190D01*
X162861904Y-108176190D01*
X163814285Y-108604761D02*
X163957142Y-108652380D01*
X164195238Y-108652380D01*
X164290476Y-108604761D01*
X164338095Y-108557142D01*
X164385714Y-108461904D01*
X164385714Y-108366666D01*
X164338095Y-108271428D01*
X164290476Y-108223809D01*
X164195238Y-108176190D01*
X164004761Y-108128571D01*
X163909523Y-108080952D01*
X163861904Y-108033333D01*
X163814285Y-107938095D01*
X163814285Y-107842857D01*
X163861904Y-107747619D01*
X163909523Y-107700000D01*
X164004761Y-107652380D01*
X164242857Y-107652380D01*
X164385714Y-107700000D01*
%TO.C,J7*%
X153271428Y-58752380D02*
X153842857Y-58752380D01*
X153557142Y-59752380D02*
X153557142Y-58752380D01*
X154176190Y-59228571D02*
X154509523Y-59228571D01*
X154652380Y-59752380D02*
X154176190Y-59752380D01*
X154176190Y-58752380D01*
X154652380Y-58752380D01*
X155557142Y-59752380D02*
X155080952Y-59752380D01*
X155080952Y-58752380D01*
X155890476Y-59228571D02*
X156223809Y-59228571D01*
X156366666Y-59752380D02*
X155890476Y-59752380D01*
X155890476Y-58752380D01*
X156366666Y-58752380D01*
X156795238Y-59752380D02*
X156795238Y-58752380D01*
X157128571Y-59466666D01*
X157461904Y-58752380D01*
X157461904Y-59752380D01*
X157938095Y-59228571D02*
X158271428Y-59228571D01*
X158414285Y-59752380D02*
X157938095Y-59752380D01*
X157938095Y-58752380D01*
X158414285Y-58752380D01*
X158700000Y-58752380D02*
X159271428Y-58752380D01*
X158985714Y-59752380D02*
X158985714Y-58752380D01*
X160176190Y-59752380D02*
X159842857Y-59276190D01*
X159604761Y-59752380D02*
X159604761Y-58752380D01*
X159985714Y-58752380D01*
X160080952Y-58800000D01*
X160128571Y-58847619D01*
X160176190Y-58942857D01*
X160176190Y-59085714D01*
X160128571Y-59180952D01*
X160080952Y-59228571D01*
X159985714Y-59276190D01*
X159604761Y-59276190D01*
X160795238Y-59276190D02*
X160795238Y-59752380D01*
X160461904Y-58752380D02*
X160795238Y-59276190D01*
X161128571Y-58752380D01*
D10*
%TO.C,R3*%
X164319047Y-102404761D02*
X163176190Y-102404761D01*
X163747619Y-102404761D02*
X163747619Y-100404761D01*
X163557142Y-100690476D01*
X163366666Y-100880952D01*
X163176190Y-100976190D01*
X165557142Y-100404761D02*
X165747619Y-100404761D01*
X165938095Y-100500000D01*
X166033333Y-100595238D01*
X166128571Y-100785714D01*
X166223809Y-101166666D01*
X166223809Y-101642857D01*
X166128571Y-102023809D01*
X166033333Y-102214285D01*
X165938095Y-102309523D01*
X165747619Y-102404761D01*
X165557142Y-102404761D01*
X165366666Y-102309523D01*
X165271428Y-102214285D01*
X165176190Y-102023809D01*
X165080952Y-101642857D01*
X165080952Y-101166666D01*
X165176190Y-100785714D01*
X165271428Y-100595238D01*
X165366666Y-100500000D01*
X165557142Y-100404761D01*
X167080952Y-102404761D02*
X167080952Y-100404761D01*
X168223809Y-102404761D02*
X167366666Y-101261904D01*
X168223809Y-100404761D02*
X167080952Y-101547619D01*
%TO.C,J10*%
X112996190Y-81604761D02*
X112996190Y-79604761D01*
X113662857Y-81033333D01*
X114329523Y-79604761D01*
X114329523Y-81604761D01*
X115281904Y-81604761D02*
X115281904Y-79604761D01*
X116043809Y-79604761D01*
X116234285Y-79700000D01*
X116329523Y-79795238D01*
X116424761Y-79985714D01*
X116424761Y-80271428D01*
X116329523Y-80461904D01*
X116234285Y-80557142D01*
X116043809Y-80652380D01*
X115281904Y-80652380D01*
X117281904Y-79604761D02*
X117281904Y-81223809D01*
X117377142Y-81414285D01*
X117472380Y-81509523D01*
X117662857Y-81604761D01*
X118043809Y-81604761D01*
X118234285Y-81509523D01*
X118329523Y-81414285D01*
X118424761Y-81223809D01*
X118424761Y-79604761D01*
X120234285Y-79604761D02*
X119853333Y-79604761D01*
X119662857Y-79700000D01*
X119567619Y-79795238D01*
X119377142Y-80080952D01*
X119281904Y-80461904D01*
X119281904Y-81223809D01*
X119377142Y-81414285D01*
X119472380Y-81509523D01*
X119662857Y-81604761D01*
X120043809Y-81604761D01*
X120234285Y-81509523D01*
X120329523Y-81414285D01*
X120424761Y-81223809D01*
X120424761Y-80747619D01*
X120329523Y-80557142D01*
X120234285Y-80461904D01*
X120043809Y-80366666D01*
X119662857Y-80366666D01*
X119472380Y-80461904D01*
X119377142Y-80557142D01*
X119281904Y-80747619D01*
X121662857Y-79604761D02*
X121853333Y-79604761D01*
X122043809Y-79700000D01*
X122139047Y-79795238D01*
X122234285Y-79985714D01*
X122329523Y-80366666D01*
X122329523Y-80842857D01*
X122234285Y-81223809D01*
X122139047Y-81414285D01*
X122043809Y-81509523D01*
X121853333Y-81604761D01*
X121662857Y-81604761D01*
X121472380Y-81509523D01*
X121377142Y-81414285D01*
X121281904Y-81223809D01*
X121186666Y-80842857D01*
X121186666Y-80366666D01*
X121281904Y-79985714D01*
X121377142Y-79795238D01*
X121472380Y-79700000D01*
X121662857Y-79604761D01*
X124139047Y-79604761D02*
X123186666Y-79604761D01*
X123091428Y-80557142D01*
X123186666Y-80461904D01*
X123377142Y-80366666D01*
X123853333Y-80366666D01*
X124043809Y-80461904D01*
X124139047Y-80557142D01*
X124234285Y-80747619D01*
X124234285Y-81223809D01*
X124139047Y-81414285D01*
X124043809Y-81509523D01*
X123853333Y-81604761D01*
X123377142Y-81604761D01*
X123186666Y-81509523D01*
X123091428Y-81414285D01*
X125472380Y-79604761D02*
X125662857Y-79604761D01*
X125853333Y-79700000D01*
X125948571Y-79795238D01*
X126043809Y-79985714D01*
X126139047Y-80366666D01*
X126139047Y-80842857D01*
X126043809Y-81223809D01*
X125948571Y-81414285D01*
X125853333Y-81509523D01*
X125662857Y-81604761D01*
X125472380Y-81604761D01*
X125281904Y-81509523D01*
X125186666Y-81414285D01*
X125091428Y-81223809D01*
X124996190Y-80842857D01*
X124996190Y-80366666D01*
X125091428Y-79985714D01*
X125186666Y-79795238D01*
X125281904Y-79700000D01*
X125472380Y-79604761D01*
%TO.C,J8*%
X155947619Y-132157142D02*
X155280952Y-132157142D01*
X155280952Y-133204761D02*
X155280952Y-131204761D01*
X156233333Y-131204761D01*
X156709523Y-131204761D02*
X157852380Y-131204761D01*
X157280952Y-133204761D02*
X157280952Y-131204761D01*
X158519047Y-133204761D02*
X158519047Y-131204761D01*
X158995238Y-131204761D01*
X159280952Y-131300000D01*
X159471428Y-131490476D01*
X159566666Y-131680952D01*
X159661904Y-132061904D01*
X159661904Y-132347619D01*
X159566666Y-132728571D01*
X159471428Y-132919047D01*
X159280952Y-133109523D01*
X158995238Y-133204761D01*
X158519047Y-133204761D01*
X160519047Y-133204761D02*
X160519047Y-131204761D01*
%TO.C,R1*%
X116416666Y-119804761D02*
X115273809Y-119804761D01*
X115845238Y-119804761D02*
X115845238Y-117804761D01*
X115654761Y-118090476D01*
X115464285Y-118280952D01*
X115273809Y-118376190D01*
X117654761Y-117804761D02*
X117845238Y-117804761D01*
X118035714Y-117900000D01*
X118130952Y-117995238D01*
X118226190Y-118185714D01*
X118321428Y-118566666D01*
X118321428Y-119042857D01*
X118226190Y-119423809D01*
X118130952Y-119614285D01*
X118035714Y-119709523D01*
X117845238Y-119804761D01*
X117654761Y-119804761D01*
X117464285Y-119709523D01*
X117369047Y-119614285D01*
X117273809Y-119423809D01*
X117178571Y-119042857D01*
X117178571Y-118566666D01*
X117273809Y-118185714D01*
X117369047Y-117995238D01*
X117464285Y-117900000D01*
X117654761Y-117804761D01*
X119559523Y-117804761D02*
X119750000Y-117804761D01*
X119940476Y-117900000D01*
X120035714Y-117995238D01*
X120130952Y-118185714D01*
X120226190Y-118566666D01*
X120226190Y-119042857D01*
X120130952Y-119423809D01*
X120035714Y-119614285D01*
X119940476Y-119709523D01*
X119750000Y-119804761D01*
X119559523Y-119804761D01*
X119369047Y-119709523D01*
X119273809Y-119614285D01*
X119178571Y-119423809D01*
X119083333Y-119042857D01*
X119083333Y-118566666D01*
X119178571Y-118185714D01*
X119273809Y-117995238D01*
X119369047Y-117900000D01*
X119559523Y-117804761D01*
D13*
%TO.C,U1*%
X144222105Y-96210682D02*
G75*
G03*
X144243776Y-96116132I-65327J64732D01*
G01*
X145633556Y-94652413D02*
G75*
G03*
X145473884Y-94659744I-76291J-80881D01*
G01*
X145473884Y-94659743D02*
G75*
G03*
X145461454Y-94820265I73029J-86397D01*
G01*
X145461454Y-94820265D02*
G75*
G03*
X145622295Y-94810491I75740J81905D01*
G01*
X145622295Y-94810492D02*
G75*
G03*
X145633557Y-94652413I-65668J84119D01*
G01*
X145372109Y-94445359D02*
G75*
G03*
X145253231Y-94445253I-59487J-54051D01*
G01*
X145253231Y-94445252D02*
G75*
G03*
X145257268Y-94561688I56649J-56324D01*
G01*
X145257268Y-94561687D02*
G75*
G03*
X145377421Y-94565831I62060J55436D01*
G01*
X145377421Y-94565830D02*
G75*
G03*
X145372109Y-94445359I-58881J57756D01*
G01*
X146338326Y-94094461D02*
G75*
G03*
X146331952Y-93950192I-73655J69021D01*
G01*
X146195970Y-94086175D02*
G75*
G03*
X146338326Y-94094461I75298J66642D01*
G01*
X146188428Y-93945201D02*
G75*
G03*
X146195971Y-94086174I72283J-66820D01*
G01*
X146331952Y-93950193D02*
G75*
G03*
X146188427Y-93945200I-74128J-65500D01*
G01*
X144376678Y-95421667D02*
G75*
G03*
X144273204Y-95425280I-50057J-49924D01*
G01*
X144637594Y-95795193D02*
G75*
G03*
X144643649Y-95634245I-73759J83363D01*
G01*
X144469528Y-95800080D02*
G75*
G03*
X144637593Y-95795193I81535J88347D01*
G01*
X144374341Y-95895267D02*
G75*
G03*
X144727575Y-95895586I176770J169331D01*
G01*
X144727576Y-95895586D02*
G75*
G03*
X144739792Y-95540015I-164637J183652D01*
G01*
X144739793Y-95540014D02*
G75*
G03*
X144505968Y-95502513I-141067J-131854D01*
G01*
X144505967Y-95502513D02*
G75*
G03*
X144465810Y-95320425I-162395J59658D01*
G01*
X144465810Y-95320425D02*
G75*
G03*
X144178655Y-95329455I-139155J-145152D01*
G01*
X144273204Y-95425279D02*
G75*
G03*
X144258756Y-95534915I66285J-64505D01*
G01*
X145462729Y-94345603D02*
G75*
G03*
X145160381Y-94347727I-150168J-144281D01*
G01*
X145160381Y-94347728D02*
G75*
G03*
X145155282Y-94650076I138328J-153550D01*
G01*
X145374872Y-94924058D02*
G75*
G03*
X145718438Y-94904722I163512J156633D01*
G01*
X145718439Y-94904723D02*
G75*
G03*
X145735224Y-94563706I-145193J178068D01*
G01*
X145735224Y-94563706D02*
G75*
G03*
X145525515Y-94499327I-163525J-158925D01*
G01*
X146105457Y-94186037D02*
G75*
G03*
X146435320Y-94187843I165833J163779D01*
G01*
X146435319Y-94187843D02*
G75*
G03*
X146432558Y-93860423I-161813J162357D01*
G01*
X146432557Y-93860423D02*
G75*
G03*
X146104607Y-93852243I-167956J-155515D01*
G01*
X142811397Y-93637115D02*
G75*
G03*
X142796949Y-93746751I66285J-64505D01*
G01*
X142914871Y-93633503D02*
G75*
G03*
X142811397Y-93637116I-50057J-49924D01*
G01*
X143175786Y-94007028D02*
G75*
G03*
X143181842Y-93846082I-73758J83362D01*
G01*
X143007721Y-94011916D02*
G75*
G03*
X143175786Y-94007029I81535J88347D01*
G01*
X142912534Y-94107103D02*
G75*
G03*
X143265769Y-94107421I176770J169332D01*
G01*
X143265768Y-94107422D02*
G75*
G03*
X143277986Y-93751851I-164636J183653D01*
G01*
X143277986Y-93751850D02*
G75*
G03*
X143044161Y-93714349I-141067J-131854D01*
G01*
X143044160Y-93714349D02*
G75*
G03*
X143004003Y-93532261I-162395J59658D01*
G01*
X143004003Y-93532260D02*
G75*
G03*
X142716846Y-93541290I-139156J-145153D01*
G01*
X141141800Y-109513851D02*
G75*
G03*
X141164188Y-109713851I445336J-51402D01*
G01*
X141164187Y-108031767D02*
G75*
G03*
X141141800Y-108231767I441070J-150626D01*
G01*
X149057717Y-107222190D02*
G75*
G03*
X148958337Y-107122810I-99999J-619D01*
G01*
X141057720Y-110523428D02*
G75*
G03*
X141157099Y-110622807I99998J619D01*
G01*
X141157100Y-107122811D02*
G75*
G03*
X141057720Y-107222189I618J-99998D01*
G01*
X148958337Y-110622807D02*
G75*
G03*
X149057716Y-110523428I-619J99998D01*
G01*
X141350774Y-109713851D02*
G75*
G03*
X141750774Y-109313851I0J400000D01*
G01*
X141750774Y-108431767D02*
G75*
G03*
X141350774Y-108031767I-400000J0D01*
G01*
X141576722Y-94980575D02*
G75*
G03*
X141446052Y-95002461I-45886J-127067D01*
G01*
X141446052Y-95002460D02*
G75*
G03*
X141437872Y-95080119I34945J-42941D01*
G01*
X141910196Y-95462992D02*
G75*
G03*
X141918483Y-95152785I-140091J158956D01*
G01*
X141630159Y-95517174D02*
G75*
G03*
X141910198Y-95462993I100928J229138D01*
G01*
X141818515Y-95364300D02*
G75*
G03*
X141828820Y-95253497I-50851J60610D01*
G01*
X141828820Y-95253496D02*
G75*
G03*
X141667023Y-95232355I-106181J-182923D01*
G01*
X141347253Y-95179874D02*
G75*
G03*
X141667023Y-95232355I211136J286037D01*
G01*
X141351928Y-94906211D02*
G75*
G03*
X141347252Y-95179874I131870J-139124D01*
G01*
X141582778Y-94844275D02*
G75*
G03*
X141351927Y-94906211I-55600J-253953D01*
G01*
X140537533Y-81772277D02*
G75*
G03*
X140437533Y-81872277I0J-100000D01*
G01*
X142437533Y-81872277D02*
G75*
G03*
X142337533Y-81772277I-100000J0D01*
G01*
X142337533Y-82622277D02*
G75*
G03*
X142437533Y-82522277I0J100000D01*
G01*
X140437533Y-82522277D02*
G75*
G03*
X140537533Y-82622277I100000J0D01*
G01*
X140437533Y-81172277D02*
G75*
G03*
X140537533Y-81272277I100000J0D01*
G01*
X142437533Y-78372277D02*
G75*
G03*
X142337533Y-78272277I-100000J0D01*
G01*
X140537533Y-78272277D02*
G75*
G03*
X140437533Y-78372277I0J-100000D01*
G01*
X142337533Y-81272277D02*
G75*
G03*
X142437533Y-81172277I0J100000D01*
G01*
X140537533Y-76922277D02*
G75*
G03*
X140437533Y-77022277I0J-100000D01*
G01*
X142437533Y-77022277D02*
G75*
G03*
X142337533Y-76922277I-100000J0D01*
G01*
X140437533Y-77672277D02*
G75*
G03*
X140537533Y-77772277I100000J0D01*
G01*
X143087533Y-82772277D02*
G75*
G03*
X143187533Y-82672277I0J100000D01*
G01*
X139787533Y-76772277D02*
G75*
G03*
X139687533Y-76872277I0J-100000D01*
G01*
X143187533Y-76872277D02*
G75*
G03*
X143087533Y-76772277I-100000J0D01*
G01*
X139687533Y-82672277D02*
G75*
G03*
X139787533Y-82772277I100000J0D01*
G01*
X141499988Y-69245785D02*
G75*
G03*
X141375142Y-68915241I-500000J0D01*
G01*
X141253572Y-69241500D02*
G75*
G03*
X141191166Y-69079153I-249983J-2925D01*
G01*
X148708833Y-69079153D02*
G75*
G03*
X148646427Y-69241500I187577J-165272D01*
G01*
X148524857Y-68915241D02*
G75*
G03*
X148400011Y-69245785I375154J-330544D01*
G01*
X141753589Y-69249936D02*
G75*
G03*
X141850000Y-69150001I-3589J99936D01*
G01*
X148049999Y-69150000D02*
G75*
G03*
X148146410Y-69249937I100001J0D01*
G01*
X142100000Y-68600000D02*
G75*
G03*
X141849999Y-68804788I-20562J-229890D01*
G01*
X148049999Y-68804789D02*
G75*
G03*
X147800000Y-68600001I-229438J-25101D01*
G01*
X148049999Y-68948183D02*
G75*
G03*
X147800000Y-68743395I-229438J-25101D01*
G01*
X142100000Y-68743395D02*
G75*
G03*
X141850000Y-68948182I-20562J-229889D01*
G01*
X141837950Y-101467588D02*
G75*
G03*
X141837950Y-106417588I0J-2475000D01*
G01*
X148137950Y-106417588D02*
G75*
G03*
X148137950Y-101467588I0J2475000D01*
G01*
X148137950Y-105992588D02*
G75*
G03*
X148137950Y-101892588I0J2050000D01*
G01*
X141837950Y-101892588D02*
G75*
G03*
X141837950Y-105992588I0J-2050000D01*
G01*
X143357025Y-93232569D02*
G75*
G03*
X143217113Y-93231400I-70498J-64282D01*
G01*
X143562273Y-93480098D02*
G75*
G03*
X143445520Y-93130688I-513447J22646D01*
G01*
X143445520Y-93130688D02*
G75*
G03*
X143127342Y-93130794I-159037J-156068D01*
G01*
X143127343Y-93130794D02*
G75*
G03*
X143143703Y-93495184I179234J-174515D01*
G01*
X144698786Y-94809323D02*
G75*
G03*
X144699849Y-95364087I268401J-276869D01*
G01*
X144699848Y-95364088D02*
G75*
G03*
X145254825Y-95368337I279456J254875D01*
G01*
X145159213Y-95273574D02*
G75*
G03*
X145240483Y-95038049I-207298J203314D01*
G01*
X144794823Y-95268688D02*
G75*
G03*
X145159213Y-95273574I184475J167591D01*
G01*
X144790255Y-94908229D02*
G75*
G03*
X144794823Y-95268688I176643J-178020D01*
G01*
X144580000Y-82060000D02*
G75*
G03*
X144680000Y-82160000I100000J0D01*
G01*
X144680000Y-77080000D02*
G75*
G03*
X144580000Y-77180000I0J-100000D01*
G01*
X149560000Y-82159999D02*
G75*
G03*
X149659999Y-82060000I0J99999D01*
G01*
X149660000Y-77180000D02*
G75*
G03*
X149560000Y-77080000I-100000J0D01*
G01*
X136000000Y-69640000D02*
X137330000Y-69640000D01*
X136000000Y-70970000D02*
X136000000Y-69640000D01*
X151300000Y-120500000D02*
X151300000Y-69700000D01*
X153840000Y-120500000D02*
X151300000Y-120500000D01*
X153840000Y-69700000D02*
X153840000Y-120500000D01*
X151300000Y-69700000D02*
X153840000Y-69700000D01*
X136000000Y-120560000D02*
X136000000Y-72240000D01*
X138660000Y-120560000D02*
X136000000Y-120560000D01*
X138660000Y-72240000D02*
X138660000Y-120560000D01*
X136000000Y-72240000D02*
X138660000Y-72240000D01*
D14*
X148513620Y-115265060D02*
X148513620Y-115773060D01*
X148513620Y-115773060D02*
X149021620Y-115773060D01*
X149021620Y-115773060D02*
X149021620Y-115265060D01*
X149021620Y-115265060D02*
X148513620Y-115265060D01*
G36*
X149021620Y-115773060D02*
G01*
X148513620Y-115773060D01*
X148513620Y-115265060D01*
X149021620Y-115265060D01*
X149021620Y-115773060D01*
G37*
X149021620Y-115773060D02*
X148513620Y-115773060D01*
X148513620Y-115265060D01*
X149021620Y-115265060D01*
X149021620Y-115773060D01*
X145973620Y-115265060D02*
X145973620Y-115773060D01*
X145973620Y-115773060D02*
X146481620Y-115773060D01*
X146481620Y-115773060D02*
X146481620Y-115265060D01*
X146481620Y-115265060D02*
X145973620Y-115265060D01*
G36*
X146481620Y-115773060D02*
G01*
X145973620Y-115773060D01*
X145973620Y-115265060D01*
X146481620Y-115265060D01*
X146481620Y-115773060D01*
G37*
X146481620Y-115773060D02*
X145973620Y-115773060D01*
X145973620Y-115265060D01*
X146481620Y-115265060D01*
X146481620Y-115773060D01*
X143433620Y-115265060D02*
X143433620Y-115773060D01*
X143433620Y-115773060D02*
X143941620Y-115773060D01*
X143941620Y-115773060D02*
X143941620Y-115265060D01*
X143941620Y-115265060D02*
X143433620Y-115265060D01*
G36*
X143941620Y-115773060D02*
G01*
X143433620Y-115773060D01*
X143433620Y-115265060D01*
X143941620Y-115265060D01*
X143941620Y-115773060D01*
G37*
X143941620Y-115773060D02*
X143433620Y-115773060D01*
X143433620Y-115265060D01*
X143941620Y-115265060D01*
X143941620Y-115773060D01*
X140893620Y-115265060D02*
X140893620Y-115773060D01*
X140893620Y-115773060D02*
X141401620Y-115773060D01*
X141401620Y-115773060D02*
X141401620Y-115265060D01*
X141401620Y-115265060D02*
X140893620Y-115265060D01*
G36*
X141401620Y-115773060D02*
G01*
X140893620Y-115773060D01*
X140893620Y-115265060D01*
X141401620Y-115265060D01*
X141401620Y-115773060D01*
G37*
X141401620Y-115773060D02*
X140893620Y-115773060D01*
X140893620Y-115265060D01*
X141401620Y-115265060D01*
X141401620Y-115773060D01*
D13*
X150090000Y-114090000D02*
X139810000Y-114090000D01*
X150090000Y-116750000D02*
X150090000Y-114090000D01*
X139810000Y-116750000D02*
X150090000Y-116750000D01*
X139810000Y-114090000D02*
X139810000Y-116750000D01*
X133575000Y-121675000D02*
X133575000Y-68525000D01*
X156325000Y-121675000D02*
X133575000Y-121675000D01*
X156325000Y-68525000D02*
X156325000Y-121675000D01*
X133575000Y-68525000D02*
X156325000Y-68525000D01*
X145027586Y-94825152D02*
X144885003Y-94846234D01*
X144885003Y-94846234D02*
X144790255Y-94908229D01*
X145379227Y-95041449D02*
X145345512Y-95239237D01*
X145345512Y-95239237D02*
X145254825Y-95368337D01*
X144698786Y-94809323D02*
X144872176Y-94705568D01*
X144872176Y-94705568D02*
X145030667Y-94688639D01*
X143425335Y-93489978D02*
X143410050Y-93338478D01*
X143410050Y-93338478D02*
X143357025Y-93232569D01*
X143217112Y-93231400D02*
X143192298Y-93277327D01*
X143192298Y-93277327D02*
X143195551Y-93329758D01*
X143195551Y-93329758D02*
X143238891Y-93399996D01*
X148646427Y-69241500D02*
X148641486Y-69249669D01*
X148641486Y-69249669D02*
X148639896Y-69250000D01*
X141253572Y-69241500D02*
X141258513Y-69249669D01*
X141258513Y-69249669D02*
X141260103Y-69250000D01*
X141663623Y-95383210D02*
X141754185Y-95393743D01*
X141754185Y-95393743D02*
X141788932Y-95384597D01*
X141788932Y-95384597D02*
X141818515Y-95364300D01*
X141742026Y-95085962D02*
X141848398Y-95104959D01*
X141848398Y-95104959D02*
X141918483Y-95152784D01*
X141612524Y-95093080D02*
X141684997Y-95088084D01*
X141684997Y-95088084D02*
X141742026Y-95085962D01*
X141472080Y-95096692D02*
X141550755Y-95096718D01*
X141550755Y-95096718D02*
X141612524Y-95093080D01*
X141437872Y-95080119D02*
X141455741Y-95092121D01*
X141455741Y-95092121D02*
X141472080Y-95096692D01*
X148535021Y-108872809D02*
G75*
G03*
X148535021Y-108872809I-425876J0D01*
G01*
X142701761Y-93841938D02*
X142661271Y-93770832D01*
X142661271Y-93770832D02*
X142648962Y-93707762D01*
X142648962Y-93707762D02*
X142669459Y-93607095D01*
X142669459Y-93607095D02*
X142716847Y-93541290D01*
X143181842Y-93846081D02*
X143157332Y-93828131D01*
X143157332Y-93828131D02*
X143128451Y-93818751D01*
X143128451Y-93818751D02*
X143068152Y-93823606D01*
X143068152Y-93823606D02*
X142966927Y-93889532D01*
X142878538Y-93801144D02*
X142930222Y-93722287D01*
X142930222Y-93722287D02*
X142935137Y-93675506D01*
X142935137Y-93675506D02*
X142928399Y-93652842D01*
X142928399Y-93652842D02*
X142914871Y-93633503D01*
X145334498Y-99118576D02*
G75*
G03*
X145334498Y-99118576I-250000J0D01*
G01*
X146105457Y-94186037D02*
X146047659Y-94097483D01*
X146047659Y-94097483D02*
X146018449Y-94019140D01*
X145462729Y-94345603D02*
X145512435Y-94425782D01*
X145512435Y-94425782D02*
X145525514Y-94499327D01*
X145374872Y-94924058D02*
X145312608Y-94815031D01*
X145312608Y-94815031D02*
X145309112Y-94715729D01*
X145309112Y-94715729D02*
X145216495Y-94693372D01*
X145216495Y-94693372D02*
X145155282Y-94650075D01*
X144698786Y-94809323D02*
X144872176Y-94705568D01*
X144872176Y-94705568D02*
X145030667Y-94688639D01*
X145027586Y-94825152D02*
X144885003Y-94846234D01*
X144885003Y-94846234D02*
X144790255Y-94908229D01*
X145379227Y-95041449D02*
X145345512Y-95239237D01*
X145345512Y-95239237D02*
X145254825Y-95368337D01*
X144163569Y-95630102D02*
X144123079Y-95558996D01*
X144123079Y-95558996D02*
X144110769Y-95495926D01*
X144110769Y-95495926D02*
X144131266Y-95395259D01*
X144131266Y-95395259D02*
X144178654Y-95329455D01*
X144643649Y-95634246D02*
X144619139Y-95616296D01*
X144619139Y-95616296D02*
X144590258Y-95606916D01*
X144590258Y-95606916D02*
X144529959Y-95611770D01*
X144529959Y-95611770D02*
X144428734Y-95677696D01*
X144340345Y-95589308D02*
X144392029Y-95510451D01*
X144392029Y-95510451D02*
X144396944Y-95463670D01*
X144396944Y-95463670D02*
X144390206Y-95441006D01*
X144390206Y-95441006D02*
X144376678Y-95421667D01*
X143694537Y-95957840D02*
X143702776Y-95833010D01*
X143702776Y-95833010D02*
X143757429Y-95750680D01*
X143757429Y-95750680D02*
X143809733Y-95709572D01*
X143809733Y-95709572D02*
X143871348Y-95684728D01*
X143871348Y-95684728D02*
X143937609Y-95680244D01*
X143937609Y-95680244D02*
X144002570Y-95694603D01*
X144002570Y-95694603D02*
X144118459Y-95759465D01*
X144118459Y-95759465D02*
X144218174Y-95847886D01*
X144218174Y-95847886D02*
X144306220Y-95947084D01*
X144306220Y-95947084D02*
X144371233Y-96062190D01*
X144371233Y-96062190D02*
X144386884Y-96126539D01*
X144386884Y-96126539D02*
X144384126Y-96192564D01*
X144384126Y-96192564D02*
X144359035Y-96253696D01*
X144359035Y-96253696D02*
X144317717Y-96305445D01*
X144317717Y-96305445D02*
X144266418Y-96346557D01*
X144266418Y-96346557D02*
X144206026Y-96372241D01*
X144206026Y-96372241D02*
X144140594Y-96377266D01*
X144140594Y-96377266D02*
X144076271Y-96363761D01*
X144076271Y-96363761D02*
X143961315Y-96300602D01*
X143961315Y-96300602D02*
X143862815Y-96213232D01*
X143862815Y-96213232D02*
X143750801Y-96081107D01*
X143750801Y-96081107D02*
X143694537Y-95957840D01*
X143217112Y-93231400D02*
X143192298Y-93277327D01*
X143192298Y-93277327D02*
X143195551Y-93329758D01*
X143195551Y-93329758D02*
X143238891Y-93399996D01*
X143425335Y-93489978D02*
X143410050Y-93338478D01*
X143410050Y-93338478D02*
X143357025Y-93232569D01*
X142701761Y-93841938D02*
X142661271Y-93770832D01*
X142661271Y-93770832D02*
X142648962Y-93707762D01*
X142648962Y-93707762D02*
X142669459Y-93607095D01*
X142669459Y-93607095D02*
X142716847Y-93541290D01*
X143181842Y-93846081D02*
X143157332Y-93828131D01*
X143157332Y-93828131D02*
X143128451Y-93818751D01*
X143128451Y-93818751D02*
X143068152Y-93823606D01*
X143068152Y-93823606D02*
X142966927Y-93889532D01*
X142878538Y-93801144D02*
X142930222Y-93722287D01*
X142930222Y-93722287D02*
X142935137Y-93675506D01*
X142935137Y-93675506D02*
X142928399Y-93652842D01*
X142928399Y-93652842D02*
X142914871Y-93633503D01*
X141437872Y-95080119D02*
X141455741Y-95092121D01*
X141455741Y-95092121D02*
X141472080Y-95096692D01*
X141472080Y-95096692D02*
X141550755Y-95096718D01*
X141550755Y-95096718D02*
X141612524Y-95093080D01*
X141612524Y-95093080D02*
X141684997Y-95088084D01*
X141684997Y-95088084D02*
X141742026Y-95085962D01*
X141742026Y-95085962D02*
X141848398Y-95104959D01*
X141848398Y-95104959D02*
X141918483Y-95152784D01*
X141663623Y-95383210D02*
X141754185Y-95393743D01*
X141754185Y-95393743D02*
X141788932Y-95384597D01*
X141788932Y-95384597D02*
X141818515Y-95364300D01*
X144122987Y-95943074D02*
X144001389Y-95842563D01*
X144001389Y-95842563D02*
X143927089Y-95817809D01*
X143927089Y-95817809D02*
X143888056Y-95822479D01*
X143888056Y-95822479D02*
X143854953Y-95843531D01*
X143854953Y-95843531D02*
X143832581Y-95877552D01*
X143832581Y-95877552D02*
X143826047Y-95917725D01*
X143826047Y-95917725D02*
X143853847Y-95993989D01*
X143853847Y-95993989D02*
X143959064Y-96119107D01*
X143959064Y-96119107D02*
X144078762Y-96216368D01*
X144078762Y-96216368D02*
X144152121Y-96238209D01*
X144152121Y-96238209D02*
X144190038Y-96231859D01*
X144190038Y-96231859D02*
X144222105Y-96210682D01*
X144243777Y-96116132D02*
X144185817Y-96012677D01*
X144185817Y-96012677D02*
X144122987Y-95943074D01*
X145462729Y-94345603D02*
X145512435Y-94425782D01*
X145512435Y-94425782D02*
X145525514Y-94499327D01*
X145309112Y-94715729D02*
X145216495Y-94693372D01*
X145216495Y-94693372D02*
X145155282Y-94650075D01*
X145374872Y-94924058D02*
X145312608Y-94815031D01*
X145312608Y-94815031D02*
X145309112Y-94715729D01*
X144340345Y-95589308D02*
X144392029Y-95510451D01*
X144392029Y-95510451D02*
X144396944Y-95463670D01*
X144396944Y-95463670D02*
X144390206Y-95441006D01*
X144390206Y-95441006D02*
X144376678Y-95421667D01*
X144643649Y-95634246D02*
X144619139Y-95616296D01*
X144619139Y-95616296D02*
X144590258Y-95606916D01*
X144590258Y-95606916D02*
X144529959Y-95611770D01*
X144529959Y-95611770D02*
X144428734Y-95677696D01*
X144110769Y-95495926D02*
X144131266Y-95395259D01*
X144131266Y-95395259D02*
X144178654Y-95329455D01*
X144163569Y-95630102D02*
X144123079Y-95558996D01*
X144123079Y-95558996D02*
X144110769Y-95495926D01*
X143694537Y-95957840D02*
X143702776Y-95833010D01*
X143702776Y-95833010D02*
X143757429Y-95750680D01*
X143862815Y-96213232D02*
X143750801Y-96081107D01*
X143750801Y-96081107D02*
X143694537Y-95957840D01*
X144317717Y-96305445D02*
X144266418Y-96346557D01*
X144266418Y-96346557D02*
X144206026Y-96372241D01*
X144206026Y-96372241D02*
X144140594Y-96377266D01*
X144140594Y-96377266D02*
X144076271Y-96363761D01*
X144076271Y-96363761D02*
X143961315Y-96300602D01*
X143961315Y-96300602D02*
X143862815Y-96213232D01*
X144218174Y-95847886D02*
X144306220Y-95947084D01*
X144306220Y-95947084D02*
X144371233Y-96062190D01*
X144371233Y-96062190D02*
X144386884Y-96126539D01*
X144386884Y-96126539D02*
X144384126Y-96192564D01*
X144384126Y-96192564D02*
X144359035Y-96253696D01*
X144359035Y-96253696D02*
X144317717Y-96305445D01*
X143757429Y-95750680D02*
X143809733Y-95709572D01*
X143809733Y-95709572D02*
X143871348Y-95684728D01*
X143871348Y-95684728D02*
X143937609Y-95680244D01*
X143937609Y-95680244D02*
X144002570Y-95694603D01*
X144002570Y-95694603D02*
X144118459Y-95759465D01*
X144118459Y-95759465D02*
X144218174Y-95847886D01*
X143854953Y-95843531D02*
X143832581Y-95877552D01*
X143832581Y-95877552D02*
X143826047Y-95917725D01*
X143826047Y-95917725D02*
X143853847Y-95993989D01*
X143853847Y-95993989D02*
X143959064Y-96119107D01*
X144122987Y-95943074D02*
X144001389Y-95842563D01*
X144001389Y-95842563D02*
X143927089Y-95817809D01*
X143927089Y-95817809D02*
X143888056Y-95822479D01*
X143888056Y-95822479D02*
X143854953Y-95843531D01*
X144243777Y-96116132D02*
X144185817Y-96012677D01*
X144185817Y-96012677D02*
X144122987Y-95943074D01*
X143959064Y-96119107D02*
X144078762Y-96216368D01*
X144078762Y-96216368D02*
X144152121Y-96238209D01*
X144152121Y-96238209D02*
X144190038Y-96231859D01*
X144190038Y-96231859D02*
X144222105Y-96210682D01*
X146105457Y-94186037D02*
X146047659Y-94097483D01*
X146047659Y-94097483D02*
X146018449Y-94019140D01*
X147790000Y-77750000D02*
X148990000Y-77750000D01*
X147790000Y-81490000D02*
X147790000Y-77750000D01*
X147220000Y-77091400D02*
X147220000Y-82160000D01*
X149560000Y-82160000D02*
X147220000Y-82160000D01*
X149660000Y-77180000D02*
X149660000Y-82060000D01*
X148990000Y-81490000D02*
X147790000Y-81490000D01*
X148990000Y-77750000D02*
X148990000Y-81490000D01*
X143395270Y-97200695D02*
X142864940Y-96670365D01*
X143490458Y-97105508D02*
X143395270Y-97200695D01*
X143252489Y-96867539D02*
X143490458Y-97105508D01*
X143415667Y-96704361D02*
X143252489Y-96867539D01*
X143320480Y-96609173D02*
X143415667Y-96704361D01*
X143157301Y-96772352D02*
X143320480Y-96609173D01*
X143055315Y-96670365D02*
X143157301Y-96772352D01*
X143218493Y-96507187D02*
X143055315Y-96670365D01*
X143123306Y-96411999D02*
X143218493Y-96507187D01*
X142864940Y-96670365D02*
X143123306Y-96411999D01*
X147020000Y-82160000D02*
X144680000Y-82160000D01*
X145250000Y-77750000D02*
X146450000Y-77750000D01*
X145250000Y-81490000D02*
X145250000Y-77750000D01*
X144680000Y-77080000D02*
X149560000Y-77080000D01*
X146450000Y-77750000D02*
X146450000Y-81490000D01*
X147020000Y-82160000D02*
X147020000Y-77091400D01*
X146450000Y-81490000D02*
X145250000Y-81490000D01*
X144580000Y-82060000D02*
X144580000Y-77180000D01*
X144579000Y-77472003D02*
X144579000Y-77661106D01*
X144579000Y-78284503D02*
X144579000Y-78329375D01*
X144579000Y-78201170D02*
X144579000Y-78235124D01*
X145030667Y-94688639D02*
X145027586Y-94825152D01*
X145240483Y-95038049D02*
X145379227Y-95041449D01*
X141566311Y-94719023D02*
X141851874Y-94433460D01*
X141851874Y-94433460D02*
X141947061Y-94528648D01*
X141947061Y-94528648D02*
X141851874Y-94623835D01*
X141851874Y-94623835D02*
X142287016Y-95058978D01*
X142287016Y-95058978D02*
X142191829Y-95154165D01*
X142191829Y-95154165D02*
X141756686Y-94719023D01*
X141756686Y-94719023D02*
X141661499Y-94814210D01*
X141661499Y-94814210D02*
X141566311Y-94719023D01*
X143238891Y-93399996D02*
X143143703Y-93495184D01*
X143562273Y-93480098D02*
X143570347Y-93598870D01*
X143570347Y-93598870D02*
X143748823Y-93420394D01*
X143748823Y-93420394D02*
X143837212Y-93508782D01*
X143837212Y-93508782D02*
X143483658Y-93862336D01*
X143483658Y-93862336D02*
X143435427Y-93814104D01*
X143435427Y-93814104D02*
X143425335Y-93489978D01*
X141837950Y-101892588D02*
X148137950Y-101892588D01*
X148137950Y-105992588D02*
X141837950Y-105992588D01*
X148137950Y-101467588D02*
X141837950Y-101467588D01*
X141837950Y-106417588D02*
X148137950Y-106417588D01*
X141850000Y-69085431D02*
X148050000Y-69085431D01*
X141850000Y-68804789D02*
X141850000Y-69150000D01*
X147800000Y-68743395D02*
X142100000Y-68743395D01*
X148050000Y-68804789D02*
X148050000Y-69150000D01*
X147800000Y-68743395D02*
X147800000Y-68600000D01*
X142100000Y-68743395D02*
X142100000Y-68600000D01*
X147800000Y-68600000D02*
X142100000Y-68600000D01*
X148088464Y-69228825D02*
X141811535Y-69228825D01*
X141750000Y-69250000D02*
X141753589Y-69249936D01*
X148150000Y-69250000D02*
X148146410Y-69249936D01*
X148146410Y-69249936D02*
X148146410Y-74260000D01*
X148639896Y-69250000D02*
X148150000Y-69250000D01*
X148646410Y-69244425D02*
X148646427Y-69241500D01*
X148646410Y-69244425D02*
X148646410Y-74250000D01*
X141260103Y-69250000D02*
X141750000Y-69250000D01*
X148646410Y-74250000D02*
X141253589Y-74250000D01*
X141253589Y-69244425D02*
X141253589Y-74250000D01*
X141253589Y-69244425D02*
X141253572Y-69241500D01*
X141753589Y-69249936D02*
X141753589Y-74260000D01*
X148400011Y-74260000D02*
X141499988Y-74260000D01*
X148409271Y-69150000D02*
X148664927Y-69150000D01*
X148400011Y-69250000D02*
X148400011Y-69245785D01*
X141499988Y-69250000D02*
X141499988Y-69245785D01*
X141490728Y-69150000D02*
X141235072Y-69150000D01*
X148524857Y-68915241D02*
X148802612Y-68600000D01*
X148822215Y-68950469D02*
X148637340Y-68787578D01*
X148802612Y-68600000D02*
X148987487Y-68762892D01*
X148987487Y-68762892D02*
X148708833Y-69079153D01*
X140912512Y-68762892D02*
X141191166Y-69079153D01*
X141097387Y-68600000D02*
X140912512Y-68762892D01*
X141375142Y-68915241D02*
X141097387Y-68600000D01*
X141077784Y-68950469D02*
X141262659Y-68787578D01*
X143087533Y-76772277D02*
X139787533Y-76772277D01*
X139787533Y-82772277D02*
X143087533Y-82772277D01*
X139687533Y-76872277D02*
X139687533Y-82672277D01*
X143187533Y-82672277D02*
X143187533Y-76872277D01*
X140437533Y-77672277D02*
X140437533Y-77022277D01*
X142437533Y-77022277D02*
X142437533Y-77672277D01*
X140537533Y-76922277D02*
X142337533Y-76922277D01*
X142337533Y-77772277D02*
X140537533Y-77772277D01*
X142437533Y-78372277D02*
X142437533Y-81172277D01*
X140437533Y-81172277D02*
X140437533Y-78372277D01*
X140537533Y-78272277D02*
X142337533Y-78272277D01*
X142337533Y-81272277D02*
X140537533Y-81272277D01*
X140437533Y-82522277D02*
X140437533Y-81872277D01*
X142337533Y-82622277D02*
X140537533Y-82622277D01*
X140537533Y-81772277D02*
X142337533Y-81772277D01*
X142437533Y-81872277D02*
X142437533Y-82522277D01*
X143092017Y-76772378D02*
X143087533Y-76772277D01*
X141630159Y-95517174D02*
X141663623Y-95383210D01*
X141582778Y-94844275D02*
X141576722Y-94980576D01*
X141350774Y-108031767D02*
X141164188Y-108031767D01*
X141164188Y-109713851D02*
X141350774Y-109713851D01*
X141750774Y-108431767D02*
X141750774Y-109313851D01*
X141057720Y-107222190D02*
X141057718Y-107222809D01*
X141141800Y-109513851D02*
X141141800Y-108231767D01*
X141057718Y-107222809D02*
X141057718Y-110522809D01*
X148958337Y-107122811D02*
X148957718Y-107122809D01*
X141157718Y-107122809D02*
X141157100Y-107122811D01*
X141157718Y-107122809D02*
X148957718Y-107122809D01*
X149057718Y-107222809D02*
X149057717Y-107222190D01*
X149057718Y-107222809D02*
X149057718Y-110522809D01*
X141157100Y-110622807D02*
X141157718Y-110622809D01*
X141157718Y-110622809D02*
X148957718Y-110622809D01*
X148957718Y-110622809D02*
X148958337Y-110622807D01*
X147557718Y-107112809D02*
X148057718Y-107112809D01*
X142557718Y-107112809D02*
X142057718Y-107112809D01*
X148958666Y-110622804D02*
X148957718Y-110622809D01*
X146661472Y-77079000D02*
X146472369Y-77079000D01*
X148708198Y-80571801D02*
X148708198Y-81208198D01*
X148071801Y-78668198D02*
X148071801Y-78031801D01*
X146168198Y-83111801D02*
X146168198Y-83748198D01*
X145531801Y-83111801D02*
X146168198Y-83111801D01*
X148708198Y-78031801D02*
X148708198Y-78668198D01*
X146168198Y-80571801D02*
X146168198Y-81208198D01*
X145531801Y-80571801D02*
X146168198Y-80571801D01*
X145531801Y-81208198D02*
X145531801Y-80571801D01*
X148708198Y-78668198D02*
X148071801Y-78668198D01*
X148071801Y-81208198D02*
X148071801Y-80571801D01*
X145531801Y-83748198D02*
X145531801Y-83111801D01*
X148071801Y-83748198D02*
X148071801Y-83111801D01*
X148071801Y-80571801D02*
X148708198Y-80571801D01*
X148708198Y-83111801D02*
X148708198Y-83748198D01*
X148071801Y-83111801D02*
X148708198Y-83111801D01*
X146168198Y-83748198D02*
X145531801Y-83748198D01*
X148708198Y-83748198D02*
X148071801Y-83748198D01*
X146168198Y-78668198D02*
X145531801Y-78668198D01*
X145531801Y-78668198D02*
X145531801Y-78031801D01*
X144880000Y-84700000D02*
X149360000Y-84700000D01*
X149660000Y-84400000D02*
X149660000Y-82460000D01*
X149360000Y-84700000D02*
X149660000Y-84400000D01*
X149660000Y-82460000D02*
X149660000Y-82060000D01*
X144580000Y-82060000D02*
X144580000Y-82460000D01*
X144580000Y-84400000D02*
X144880000Y-84700000D01*
X144580000Y-82460000D02*
X144580000Y-84400000D01*
X146168198Y-81208198D02*
X145531801Y-81208198D01*
X148708198Y-81208198D02*
X148071801Y-81208198D01*
X146168198Y-78031801D02*
X146168198Y-78668198D01*
X145531801Y-78031801D02*
X146168198Y-78031801D01*
X148071801Y-78031801D02*
X148708198Y-78031801D01*
X142796949Y-93746751D02*
X142701761Y-93841938D01*
X142912534Y-94107103D02*
X143007721Y-94011916D01*
X142966927Y-93889532D02*
X142878538Y-93801144D01*
X143422466Y-96112839D02*
X143952797Y-96643169D01*
X142505862Y-94840132D02*
X142409400Y-94936594D01*
X142409400Y-94936594D02*
X141968627Y-94316707D01*
X142227418Y-94448652D02*
X142505862Y-94840132D01*
X142672015Y-94673979D02*
X142227418Y-94448652D01*
X142764866Y-94581128D02*
X142672015Y-94673979D01*
X142540177Y-94135893D02*
X142764866Y-94581128D01*
X142931762Y-94414231D02*
X142540177Y-94135893D01*
X143028118Y-94317875D02*
X142931762Y-94414231D01*
X142408125Y-93877209D02*
X143028118Y-94317875D01*
X142310282Y-93975052D02*
X142408125Y-93877209D01*
X142558343Y-94466818D02*
X142310282Y-93975052D01*
X142067426Y-94217907D02*
X142558343Y-94466818D01*
X141968627Y-94316707D02*
X142067426Y-94217907D01*
X143306882Y-96405200D02*
X143275330Y-96259976D01*
X143415667Y-96296415D02*
X143306882Y-96405200D01*
X143857609Y-96738356D02*
X143415667Y-96296415D01*
X143952797Y-96643169D02*
X143857609Y-96738356D01*
X143275330Y-96259976D02*
X143422466Y-96112839D01*
X145034498Y-100018324D02*
X145134498Y-100018324D01*
X140184750Y-95168576D02*
X145034498Y-100018324D01*
X145034498Y-90218829D02*
X140184750Y-95068576D01*
X149984245Y-95168576D02*
X145134498Y-100018324D01*
X149984245Y-95068576D02*
X145134498Y-90218829D01*
X140184750Y-95168576D02*
X140184750Y-95068576D01*
X145134498Y-90218829D02*
X145034498Y-90218829D01*
X149984245Y-95068576D02*
X149984245Y-95168576D01*
X140912568Y-97310607D02*
X141619674Y-96603500D01*
X141266121Y-97664161D02*
X141973228Y-96957054D01*
X147276529Y-99290506D02*
X146569422Y-98583399D01*
X141478253Y-92360860D02*
X142185360Y-93067967D01*
X140064039Y-96462079D02*
X140771146Y-95754972D01*
X149256428Y-92926545D02*
X148549321Y-93633652D01*
X147488661Y-91158778D02*
X146781554Y-91865885D01*
X149044296Y-97522739D02*
X148337189Y-96815632D01*
X141266121Y-92572992D02*
X141973228Y-93280099D01*
X146215868Y-100351166D02*
X145508762Y-99644060D01*
X147488661Y-99078374D02*
X146781554Y-98371267D01*
X141973228Y-91865885D02*
X142680334Y-92572992D01*
X149044296Y-92714413D02*
X148337189Y-93421520D01*
X149963534Y-93633652D02*
X149256428Y-94340759D01*
X139851907Y-96249947D02*
X140559014Y-95542840D01*
X150104956Y-93775073D02*
X149397849Y-94482180D01*
X142892467Y-90946646D02*
X143599573Y-91653753D01*
X147983635Y-98583399D02*
X147276529Y-97876293D01*
X143599573Y-99997613D02*
X144306680Y-99290506D01*
X143953127Y-100351166D02*
X144660233Y-99644060D01*
X143599573Y-90239539D02*
X144306680Y-90946646D01*
X146215868Y-89885986D02*
X145508762Y-90593093D01*
X142680334Y-91158778D02*
X143387441Y-91865885D01*
X147630082Y-98936953D02*
X146922975Y-98229846D01*
X146569422Y-99997613D02*
X145862315Y-99290506D01*
X142185360Y-91653753D02*
X142892467Y-92360860D01*
X147276529Y-90946646D02*
X146569422Y-91653753D01*
X141124700Y-92714413D02*
X141831806Y-93421520D01*
X150317088Y-93987205D02*
X149609981Y-94694312D01*
X146922975Y-99644060D02*
X146215868Y-98936953D01*
X143387441Y-99785481D02*
X144094548Y-99078374D01*
X142538913Y-91300200D02*
X143246020Y-92007306D01*
X146781554Y-90451671D02*
X146074447Y-91158778D01*
X148690742Y-97876293D02*
X147983635Y-97169186D01*
X143740995Y-100139034D02*
X144448101Y-99431928D01*
X150104956Y-96462079D02*
X149397849Y-95754972D01*
X150317088Y-96249947D02*
X149609981Y-95542840D01*
X149751402Y-93421520D02*
X149044296Y-94128627D01*
X149256428Y-97310607D02*
X148549321Y-96603500D01*
X143246020Y-99644060D02*
X143953127Y-98936953D01*
X146922975Y-90593093D02*
X146215868Y-91300200D01*
X141973228Y-98371267D02*
X142680334Y-97664161D01*
X147983635Y-91653753D02*
X147276529Y-92360860D01*
X148195767Y-91865885D02*
X147488661Y-92572992D01*
X146781554Y-99785481D02*
X146074447Y-99078374D01*
X141619674Y-98017714D02*
X142326781Y-97310607D01*
X140205461Y-93633652D02*
X140912568Y-94340759D01*
X148337189Y-98229846D02*
X147630082Y-97522739D01*
X143033888Y-90805225D02*
X143740995Y-91512332D01*
X148902874Y-97664161D02*
X148195767Y-96957054D01*
X142326781Y-91512332D02*
X143033888Y-92219438D01*
X142185360Y-98583399D02*
X142892467Y-97876293D01*
X148549321Y-92219438D02*
X147842214Y-92926545D01*
X148690742Y-92360860D02*
X147983635Y-93067967D01*
X148902874Y-92572992D02*
X148195767Y-93280099D01*
X140205461Y-96603500D02*
X140912568Y-95896394D01*
X142680334Y-99078374D02*
X143387441Y-98371267D01*
X143246020Y-90593093D02*
X143953127Y-91300200D01*
X147842214Y-91512332D02*
X147135107Y-92219438D01*
X141124700Y-97522739D02*
X141831806Y-96815632D01*
X141831806Y-92007306D02*
X142538913Y-92714413D01*
X149609981Y-93280099D02*
X148902874Y-93987205D01*
X140064039Y-93775073D02*
X140771146Y-94482180D01*
X143740995Y-90098118D02*
X144448101Y-90805225D01*
X140559014Y-96957054D02*
X141266121Y-96249947D01*
X140417593Y-96815632D02*
X141124700Y-96108526D01*
X149397849Y-97169186D02*
X148690742Y-96462079D01*
X140771146Y-93067967D02*
X141478253Y-93775073D01*
X141478253Y-97876293D02*
X142185360Y-97169186D01*
X147135107Y-90805225D02*
X146428000Y-91512332D01*
X142892467Y-99290506D02*
X143599573Y-98583399D01*
X147630082Y-91300200D02*
X146922975Y-92007306D01*
X141619674Y-92219438D02*
X142326781Y-92926545D01*
X142326781Y-98724821D02*
X143033888Y-98017714D01*
X143033888Y-99431928D02*
X143740995Y-98724821D01*
X148549321Y-98017714D02*
X147842214Y-97310607D01*
X147135107Y-99431928D02*
X146428000Y-98724821D01*
X143953127Y-89885986D02*
X144660233Y-90593093D01*
X140417593Y-93421520D02*
X141124700Y-94128627D01*
X149751402Y-96815632D02*
X149044296Y-96108526D01*
X147842214Y-98724821D02*
X147135107Y-98017714D01*
X140912568Y-92926545D02*
X141619674Y-93633652D01*
X146428000Y-100139034D02*
X145720894Y-99431928D01*
X149609981Y-96957054D02*
X148902874Y-96249947D01*
X143387441Y-90451671D02*
X144094548Y-91158778D01*
X146428000Y-90098118D02*
X145720894Y-90805225D01*
X140559014Y-93280099D02*
X141266121Y-93987205D01*
X141831806Y-98229846D02*
X142538913Y-97522739D01*
X149397849Y-93067967D02*
X148690742Y-93775073D01*
X140771146Y-97169186D02*
X141478253Y-96462079D01*
X148195767Y-98371267D02*
X147488661Y-97664161D01*
X146569422Y-90239539D02*
X145862315Y-90946646D01*
X142538913Y-98936953D02*
X143246020Y-98229846D01*
X148337189Y-92007306D02*
X147630082Y-92714413D01*
X149963534Y-96603500D02*
X149256428Y-95896394D01*
X139851907Y-93987205D02*
X140559014Y-94694312D01*
X147842214Y-98724821D02*
X147630082Y-98936953D01*
X140417593Y-96815632D02*
X140205461Y-96603500D01*
X142538913Y-98936953D02*
X142326781Y-98724821D01*
X147488661Y-91158778D02*
X147276529Y-90946646D01*
X142538913Y-91300200D02*
X142326781Y-91512332D01*
X149963534Y-93633652D02*
X149751402Y-93421520D01*
X147488661Y-99078374D02*
X147276529Y-99290506D01*
X149256428Y-97310607D02*
X149044296Y-97522739D01*
X142185360Y-98583399D02*
X141973228Y-98371267D01*
X149609981Y-96957054D02*
X149397849Y-97169186D01*
X143246020Y-99644060D02*
X143033888Y-99431928D01*
X140064039Y-93775073D02*
X139851907Y-93987205D01*
X142892467Y-90946646D02*
X142680334Y-91158778D01*
X150317088Y-96249947D02*
X150104956Y-96462079D01*
X140064039Y-96462079D02*
X139851907Y-96249947D01*
X141478253Y-92360860D02*
X141266121Y-92572992D01*
X147135107Y-99431928D02*
X146922975Y-99644060D01*
X141478253Y-97876293D02*
X141266121Y-97664161D01*
X148902874Y-92572992D02*
X148690742Y-92360860D01*
X147135107Y-90805225D02*
X146922975Y-90593093D01*
X147842214Y-91512332D02*
X147630082Y-91300200D01*
X149609981Y-93280099D02*
X149397849Y-93067967D01*
X143599573Y-90239539D02*
X143387441Y-90451671D01*
X142892467Y-99290506D02*
X142680334Y-99078374D01*
X149256428Y-92926545D02*
X149044296Y-92714413D01*
X148902874Y-97664161D02*
X148690742Y-97876293D01*
X148549321Y-92219438D02*
X148337189Y-92007306D01*
X141831806Y-92007306D02*
X141619674Y-92219438D01*
X141124700Y-92714413D02*
X140912568Y-92926545D01*
X150317088Y-93987205D02*
X150104956Y-93775073D01*
X140771146Y-93067967D02*
X140559014Y-93280099D01*
X148195767Y-98371267D02*
X147983635Y-98583399D01*
X146428000Y-90098118D02*
X146215868Y-89885986D01*
X148195767Y-91865885D02*
X147983635Y-91653753D01*
X141124700Y-97522739D02*
X140912568Y-97310607D01*
X146428000Y-100139034D02*
X146215868Y-100351166D01*
X143246020Y-90593093D02*
X143033888Y-90805225D01*
X148549321Y-98017714D02*
X148337189Y-98229846D01*
X143599573Y-99997613D02*
X143387441Y-99785481D01*
X146781554Y-90451671D02*
X146569422Y-90239539D01*
X140771146Y-97169186D02*
X140559014Y-96957054D01*
X149963534Y-96603500D02*
X149751402Y-96815632D01*
X141831806Y-98229846D02*
X141619674Y-98017714D01*
X143953127Y-89885986D02*
X143740995Y-90098118D01*
X142185360Y-91653753D02*
X141973228Y-91865885D01*
X146781554Y-99785481D02*
X146569422Y-99997613D01*
X140417593Y-93421520D02*
X140205461Y-93633652D01*
X143953127Y-100351166D02*
X143740995Y-100139034D01*
X145489394Y-94236286D02*
X145394207Y-94141099D01*
X145584581Y-94141099D02*
X145489394Y-94236286D01*
X146019724Y-94576241D02*
X145584581Y-94141099D01*
X146114912Y-94481054D02*
X146019724Y-94576241D01*
X145679769Y-94045911D02*
X146114912Y-94481054D01*
X145774956Y-93950724D02*
X145679769Y-94045911D01*
X145679769Y-93855536D02*
X145774956Y-93950724D01*
X145394207Y-94141099D02*
X145679769Y-93855536D01*
X144428734Y-95677696D02*
X144340345Y-95589308D01*
X144374341Y-95895267D02*
X144469528Y-95800080D01*
X144258756Y-95534915D02*
X144163569Y-95630102D01*
X145888416Y-93619692D02*
X146015368Y-93578154D01*
X146015368Y-93578154D02*
X146104607Y-93852243D01*
X146018449Y-94019140D02*
X145888416Y-93619692D01*
X142437533Y-77672277D02*
X142337533Y-77772277D01*
%TO.C,J5*%
X117055000Y-59270000D02*
X117055000Y-60600000D01*
X114455000Y-59270000D02*
X114455000Y-61930000D01*
X114455000Y-61930000D02*
X109315000Y-61930000D01*
X114455000Y-59270000D02*
X109315000Y-59270000D01*
X109315000Y-59270000D02*
X109315000Y-61930000D01*
X115725000Y-59270000D02*
X117055000Y-59270000D01*
%TO.C,J6*%
X181500000Y-101100000D02*
X181500000Y-105500000D01*
X177100000Y-105500000D02*
X177100000Y-101100000D01*
X181500000Y-105500000D02*
X177100000Y-105500000D01*
X177100000Y-101100000D02*
X181500000Y-101100000D01*
%TO.C,R4*%
X170760000Y-96900000D02*
X170070000Y-96900000D01*
X170070000Y-98620000D02*
X170070000Y-95180000D01*
X160830000Y-95180000D02*
X160830000Y-98620000D01*
X170070000Y-95180000D02*
X160830000Y-95180000D01*
X160830000Y-98620000D02*
X170070000Y-98620000D01*
X160140000Y-96900000D02*
X160830000Y-96900000D01*
%TO.C,J4*%
X109915000Y-128770000D02*
X109915000Y-131430000D01*
X115055000Y-128770000D02*
X109915000Y-128770000D01*
X115055000Y-128770000D02*
X115055000Y-131430000D01*
X116325000Y-128770000D02*
X117655000Y-128770000D01*
X115055000Y-131430000D02*
X109915000Y-131430000D01*
X117655000Y-128770000D02*
X117655000Y-130100000D01*
%TO.C,J11*%
X124170000Y-101470000D02*
X124170000Y-104130000D01*
X108870000Y-101470000D02*
X108870000Y-104130000D01*
X126770000Y-104130000D02*
X125440000Y-104130000D01*
X126770000Y-102800000D02*
X126770000Y-104130000D01*
X124170000Y-104130000D02*
X108870000Y-104130000D01*
X124170000Y-101470000D02*
X108870000Y-101470000D01*
%TO.C,D2*%
X131190000Y-131545000D02*
X131190000Y-128455000D01*
X131190000Y-128455170D02*
G75*
G03*
X125640000Y-130000462I-2560000J-1544830D01*
G01*
X125640000Y-129999538D02*
G75*
G03*
X131190000Y-131544830I2990000J-462D01*
G01*
X131130000Y-130000000D02*
G75*
G03*
X131130000Y-130000000I-2500000J0D01*
G01*
%TO.C,D1*%
X138665000Y-131645000D02*
X138665000Y-128555000D01*
X138665000Y-128555170D02*
G75*
G03*
X133115000Y-130100462I-2560000J-1544830D01*
G01*
X133115000Y-130099538D02*
G75*
G03*
X138665000Y-131644830I2990000J-462D01*
G01*
X138605000Y-130100000D02*
G75*
G03*
X138605000Y-130100000I-2500000J0D01*
G01*
%TO.C,J2*%
X178255000Y-59470000D02*
X178255000Y-62130000D01*
X173115000Y-59470000D02*
X173115000Y-62130000D01*
X180855000Y-59470000D02*
X180855000Y-60800000D01*
X178255000Y-62130000D02*
X173115000Y-62130000D01*
X178255000Y-59470000D02*
X173115000Y-59470000D01*
X179525000Y-59470000D02*
X180855000Y-59470000D01*
%TO.C,R2*%
X122170000Y-125020000D02*
X122170000Y-121580000D01*
X112930000Y-121580000D02*
X112930000Y-125020000D01*
X112240000Y-123300000D02*
X112930000Y-123300000D01*
X122860000Y-123300000D02*
X122170000Y-123300000D01*
X122170000Y-121580000D02*
X112930000Y-121580000D01*
X112930000Y-125020000D02*
X122170000Y-125020000D01*
%TO.C,J3*%
X172015000Y-128270000D02*
X172015000Y-130930000D01*
X179755000Y-128270000D02*
X179755000Y-129600000D01*
X177155000Y-128270000D02*
X177155000Y-130930000D01*
X177155000Y-128270000D02*
X172015000Y-128270000D01*
X177155000Y-130930000D02*
X172015000Y-130930000D01*
X178425000Y-128270000D02*
X179755000Y-128270000D01*
%TO.C,J12*%
X165495000Y-71170000D02*
X166825000Y-71170000D01*
X165495000Y-72500000D02*
X165495000Y-71170000D01*
X168095000Y-71170000D02*
X178315000Y-71170000D01*
X168095000Y-73830000D02*
X178315000Y-73830000D01*
X178315000Y-73830000D02*
X178315000Y-71170000D01*
X168095000Y-73830000D02*
X168095000Y-71170000D01*
%TO.C,J1*%
X135425000Y-60270000D02*
X136755000Y-60270000D01*
X134155000Y-60270000D02*
X134155000Y-62930000D01*
X136755000Y-60270000D02*
X136755000Y-61600000D01*
X134155000Y-62930000D02*
X129015000Y-62930000D01*
X129015000Y-60270000D02*
X129015000Y-62930000D01*
X134155000Y-60270000D02*
X129015000Y-60270000D01*
%TO.C,J9*%
X161770000Y-112470000D02*
X164430000Y-112470000D01*
X161770000Y-120150000D02*
X164430000Y-120150000D01*
X161770000Y-111200000D02*
X161770000Y-109870000D01*
X161770000Y-112470000D02*
X161770000Y-120150000D01*
X161770000Y-109870000D02*
X163100000Y-109870000D01*
X164430000Y-112470000D02*
X164430000Y-120150000D01*
%TO.C,J7*%
X154470000Y-60570000D02*
X162150000Y-60570000D01*
X151870000Y-63230000D02*
X151870000Y-61900000D01*
X154470000Y-63230000D02*
X162150000Y-63230000D01*
X162150000Y-63230000D02*
X162150000Y-60570000D01*
X154470000Y-63230000D02*
X154470000Y-60570000D01*
X153200000Y-63230000D02*
X151870000Y-63230000D01*
%TO.C,R3*%
X160880000Y-103120000D02*
X170120000Y-103120000D01*
X160190000Y-101400000D02*
X160880000Y-101400000D01*
X170120000Y-99680000D02*
X160880000Y-99680000D01*
X170810000Y-101400000D02*
X170120000Y-101400000D01*
X160880000Y-99680000D02*
X160880000Y-103120000D01*
X170120000Y-103120000D02*
X170120000Y-99680000D01*
%TO.C,J10*%
X129030000Y-74030000D02*
X127700000Y-74030000D01*
X108590000Y-71370000D02*
X108590000Y-74030000D01*
X126430000Y-71370000D02*
X108590000Y-71370000D01*
X126430000Y-74030000D02*
X108590000Y-74030000D01*
X129030000Y-72700000D02*
X129030000Y-74030000D01*
X126430000Y-71370000D02*
X126430000Y-74030000D01*
%TO.C,J8*%
X155470000Y-130330000D02*
X163150000Y-130330000D01*
X154200000Y-130330000D02*
X152870000Y-130330000D01*
X155470000Y-130330000D02*
X155470000Y-127670000D01*
X163150000Y-130330000D02*
X163150000Y-127670000D01*
X155470000Y-127670000D02*
X163150000Y-127670000D01*
X152870000Y-130330000D02*
X152870000Y-129000000D01*
%TO.C,R1*%
X113030000Y-120620000D02*
X122270000Y-120620000D01*
X113030000Y-117180000D02*
X113030000Y-120620000D01*
X112340000Y-118900000D02*
X113030000Y-118900000D01*
X122270000Y-120620000D02*
X122270000Y-117180000D01*
X122960000Y-118900000D02*
X122270000Y-118900000D01*
X122270000Y-117180000D02*
X113030000Y-117180000D01*
%TD*%
M02*
