M48
; DRILL file {KiCad (6.0.1-0)} date 2022 February 26, Saturday 01:42:59
; FORMAT={-:-/ absolute / metric / decimal}
; #@! TF.CreationDate,2022-02-26T01:42:59+01:00
; #@! TF.GenerationSoftware,Kicad,Pcbnew,(6.0.1-0)
; #@! TF.FileFunction,Plated,1,2,PTH
FMAT,2
METRIC
; #@! TA.AperFunction,Plated,PTH,ViaDrill
T1C0.400
; #@! TA.AperFunction,Plated,PTH,ComponentDrill
T2C0.800
; #@! TA.AperFunction,Plated,PTH,ComponentDrill
T3C0.900
; #@! TA.AperFunction,Plated,PTH,ComponentDrill
T4C1.000
%
G90
G05
T1
X106.1Y-72.9
X117.5Y-114.0
X118.5Y-112.1
X122.7Y-57.2
X125.4Y-67.8
X126.5Y-79.3
X128.2Y-116.2
X129.7Y-67.9
X130.5Y-113.8
X131.4Y-100.9
X131.8Y-70.9
X131.8Y-97.6
X140.9Y-123.7
X141.6Y-68.1
X144.9Y-74.3
X147.4Y-82.1
X147.9Y-74.4
X149.9Y-58.6
X154.7Y-123.6
X158.2Y-71.5
X160.9Y-72.5
T2
X111.2Y-123.3
X111.3Y-118.9
X123.9Y-123.3
X124.0Y-118.9
X159.1Y-96.9
X159.15Y-101.4
X171.8Y-96.9
X171.85Y-101.4
T3
X127.36Y-130.0
X129.9Y-130.0
X134.835Y-130.1
X137.375Y-130.1
T4
X109.92Y-72.7
X110.2Y-102.8
X110.645Y-60.6
X111.245Y-130.1
X112.46Y-72.7
X112.74Y-102.8
X113.185Y-60.6
X113.785Y-130.1
X115.0Y-72.7
X115.28Y-102.8
X115.725Y-60.6
X116.325Y-130.1
X117.54Y-72.7
X117.82Y-102.8
X120.08Y-72.7
X120.36Y-102.8
X122.62Y-72.7
X122.9Y-102.8
X125.16Y-72.7
X125.44Y-102.8
X127.7Y-72.7
X130.345Y-61.6
X132.885Y-61.6
X135.425Y-61.6
X137.33Y-70.97
X137.33Y-73.51
X137.33Y-76.05
X137.33Y-78.59
X137.33Y-81.13
X137.33Y-83.67
X137.33Y-86.21
X137.33Y-88.75
X137.33Y-91.29
X137.33Y-93.83
X137.33Y-96.37
X137.33Y-98.91
X137.33Y-101.45
X137.33Y-103.99
X137.33Y-106.53
X137.33Y-109.07
X137.33Y-111.61
X137.33Y-114.15
X137.33Y-116.69
X137.33Y-119.23
X152.57Y-70.97
X152.57Y-73.51
X152.57Y-76.05
X152.57Y-78.59
X152.57Y-81.13
X152.57Y-83.67
X152.57Y-86.21
X152.57Y-88.75
X152.57Y-91.29
X152.57Y-93.83
X152.57Y-96.37
X152.57Y-98.91
X152.57Y-101.45
X152.57Y-103.99
X152.57Y-106.53
X152.57Y-109.07
X152.57Y-111.61
X152.57Y-114.15
X152.57Y-116.69
X152.57Y-119.23
X153.2Y-61.9
X154.2Y-129.0
X155.74Y-61.9
X156.74Y-129.0
X158.28Y-61.9
X159.28Y-129.0
X160.82Y-61.9
X161.82Y-129.0
X163.1Y-111.2
X163.1Y-113.74
X163.1Y-116.28
X163.1Y-118.82
X166.825Y-72.5
X169.365Y-72.5
X171.905Y-72.5
X173.345Y-129.6
X174.445Y-60.8
X174.445Y-72.5
X175.885Y-129.6
X176.985Y-60.8
X176.985Y-72.5
X178.425Y-129.6
X179.525Y-60.8
T0
M30
